<mxfile host="app.diagrams.net" agent="Mozilla/5.0 (Windows NT 10.0; Win64; x64) AppleWebKit/537.36 (KHTML, like Gecko) Chrome/136.0.0.0 Safari/537.36" version="26.2.14">
  <diagram name="Strona-1" id="V2bcWA2_caKUuABU5mve">
    <mxGraphModel dx="6037" dy="2835" grid="1" gridSize="10" guides="1" tooltips="1" connect="1" arrows="1" fold="1" page="1" pageScale="1" pageWidth="827" pageHeight="1169" math="0" shadow="0">
      <root>
        <mxCell id="0" />
        <mxCell id="1" parent="0" />
        <mxCell id="7iBCfK0Fx1MPOXK75AvC-20" value="" style="rounded=0;whiteSpace=wrap;html=1;dashed=1;fillColor=none;" parent="1" vertex="1">
          <mxGeometry x="930" y="350" width="1515" height="390" as="geometry" />
        </mxCell>
        <object placeholders="1" c4Name="Użytkownik systemu aukcyjnego" c4Type="Person" c4Description="Użytkownik systemu aukcyjnego posiadający na nim konto" label="&lt;font style=&quot;font-size: 16px&quot;&gt;&lt;b&gt;%c4Name%&lt;/b&gt;&lt;/font&gt;&lt;div&gt;[%c4Type%]&lt;/div&gt;&lt;br&gt;&lt;div&gt;&lt;font style=&quot;font-size: 11px&quot;&gt;&lt;font color=&quot;#cccccc&quot;&gt;%c4Description%&lt;/font&gt;&lt;/div&gt;" id="G_2vIIOp6yIZ4K_ppZqW-1">
          <mxCell style="html=1;fontSize=11;dashed=0;whiteSpace=wrap;fillColor=#a20025;strokeColor=#6F0000;fontColor=#ffffff;shape=mxgraph.c4.person2;align=center;metaEdit=1;points=[[0.5,0,0],[1,0.5,0],[1,0.75,0],[0.75,1,0],[0.5,1,0],[0.25,1,0],[0,0.75,0],[0,0.5,0]];resizable=0;" parent="1" vertex="1">
            <mxGeometry x="170" y="40" width="200" height="180" as="geometry" />
          </mxCell>
        </object>
        <object placeholders="1" c4Type="Relationship" c4Description="Wyświetla aukcje,&#xa; i dokonuje płatności &#xa;za pomocą" label="&lt;div style=&quot;text-align: left&quot;&gt;&lt;div style=&quot;text-align: center&quot;&gt;&lt;b&gt;%c4Description%&lt;/b&gt;&lt;/div&gt;" id="G_2vIIOp6yIZ4K_ppZqW-3">
          <mxCell style="endArrow=blockThin;html=1;fontSize=10;fontColor=#404040;strokeWidth=1;endFill=1;strokeColor=#828282;elbow=vertical;metaEdit=1;endSize=14;startSize=14;jumpStyle=arc;jumpSize=16;rounded=0;edgeStyle=orthogonalEdgeStyle;exitX=0.5;exitY=1;exitDx=0;exitDy=0;exitPerimeter=0;" parent="1" source="G_2vIIOp6yIZ4K_ppZqW-1" edge="1">
            <mxGeometry width="240" relative="1" as="geometry">
              <mxPoint x="290" y="390" as="sourcePoint" />
              <mxPoint x="270" y="310" as="targetPoint" />
            </mxGeometry>
          </mxCell>
        </object>
        <object placeholders="1" c4Name="System aukcyjny dla motoryzacji" c4Type="Software System" c4Description="Pozwala użytkownikowi wyświetlanie aukcji oraz dokonywania na nich płatności" label="&lt;font style=&quot;font-size: 16px&quot;&gt;&lt;b&gt;%c4Name%&lt;/b&gt;&lt;/font&gt;&lt;div&gt;[%c4Type%]&lt;/div&gt;&lt;br&gt;&lt;div&gt;&lt;font style=&quot;font-size: 11px&quot;&gt;&lt;font color=&quot;#cccccc&quot;&gt;%c4Description%&lt;/font&gt;&lt;/div&gt;" id="G_2vIIOp6yIZ4K_ppZqW-5">
          <mxCell style="rounded=1;whiteSpace=wrap;html=1;labelBackgroundColor=none;fillColor=#a20025;fontColor=#ffffff;align=center;arcSize=10;strokeColor=#6F0000;metaEdit=1;resizable=0;points=[[0.25,0,0],[0.5,0,0],[0.75,0,0],[1,0.25,0],[1,0.5,0],[1,0.75,0],[0.75,1,0],[0.5,1,0],[0.25,1,0],[0,0.75,0],[0,0.5,0],[0,0.25,0]];" parent="1" vertex="1">
            <mxGeometry x="150" y="310" width="240" height="120" as="geometry" />
          </mxCell>
        </object>
        <object placeholders="1" c4Type="Relationship" c4Description="Wysyła E-maile&#xa;za pomocą" label="&lt;div style=&quot;text-align: left&quot;&gt;&lt;div style=&quot;text-align: center&quot;&gt;&lt;b&gt;%c4Description%&lt;/b&gt;&lt;/div&gt;" id="G_2vIIOp6yIZ4K_ppZqW-9">
          <mxCell style="endArrow=blockThin;html=1;fontSize=10;fontColor=#404040;strokeWidth=1;endFill=1;strokeColor=#828282;elbow=vertical;metaEdit=1;endSize=14;startSize=14;jumpStyle=arc;jumpSize=16;rounded=0;edgeStyle=orthogonalEdgeStyle;exitX=1;exitY=0.5;exitDx=0;exitDy=0;exitPerimeter=0;dashed=1;dashPattern=12 12;entryX=0;entryY=0.5;entryDx=0;entryDy=0;entryPerimeter=0;" parent="1" source="G_2vIIOp6yIZ4K_ppZqW-5" target="G_2vIIOp6yIZ4K_ppZqW-10" edge="1">
            <mxGeometry width="240" relative="1" as="geometry">
              <mxPoint x="440" y="390" as="sourcePoint" />
              <mxPoint x="600" y="370" as="targetPoint" />
            </mxGeometry>
          </mxCell>
        </object>
        <object placeholders="1" c4Name="System E-mail" c4Type="Software System" c4Description="Wewnętrzny system wymiany E-mail Microsoft Exchange" label="&lt;font style=&quot;font-size: 16px&quot;&gt;&lt;b&gt;%c4Name%&lt;/b&gt;&lt;/font&gt;&lt;div&gt;[%c4Type%]&lt;/div&gt;&lt;br&gt;&lt;div&gt;&lt;font style=&quot;font-size: 11px&quot;&gt;&lt;font color=&quot;#cccccc&quot;&gt;%c4Description%&lt;/font&gt;&lt;/div&gt;" id="G_2vIIOp6yIZ4K_ppZqW-10">
          <mxCell style="rounded=1;whiteSpace=wrap;html=1;labelBackgroundColor=none;fillColor=#8C8496;fontColor=#ffffff;align=center;arcSize=10;strokeColor=#736782;metaEdit=1;resizable=0;points=[[0.25,0,0],[0.5,0,0],[0.75,0,0],[1,0.25,0],[1,0.5,0],[1,0.75,0],[0.75,1,0],[0.5,1,0],[0.25,1,0],[0,0.75,0],[0,0.5,0],[0,0.25,0]];" parent="1" vertex="1">
            <mxGeometry x="560" y="310" width="240" height="120" as="geometry" />
          </mxCell>
        </object>
        <object placeholders="1" c4Type="Relationship" c4Description="Wysyła E-maile do" label="&lt;div style=&quot;text-align: left&quot;&gt;&lt;div style=&quot;text-align: center&quot;&gt;&lt;b&gt;%c4Description%&lt;/b&gt;&lt;/div&gt;" id="G_2vIIOp6yIZ4K_ppZqW-13">
          <mxCell style="endArrow=blockThin;html=1;fontSize=10;fontColor=#404040;strokeWidth=1;endFill=1;strokeColor=#828282;elbow=vertical;metaEdit=1;endSize=14;startSize=14;jumpStyle=arc;jumpSize=16;rounded=0;exitX=0.012;exitY=-0.008;exitDx=0;exitDy=0;exitPerimeter=0;entryX=1;entryY=0.75;entryDx=0;entryDy=0;entryPerimeter=0;dashed=1;dashPattern=12 12;" parent="1" source="G_2vIIOp6yIZ4K_ppZqW-10" target="G_2vIIOp6yIZ4K_ppZqW-1" edge="1">
            <mxGeometry width="240" relative="1" as="geometry">
              <mxPoint x="590" y="230" as="sourcePoint" />
              <mxPoint x="830" y="230" as="targetPoint" />
            </mxGeometry>
          </mxCell>
        </object>
        <object placeholders="1" c4Type="Relationship" c4Description="Dokonuje płatności&#xa;za pomocą" label="&lt;div style=&quot;text-align: left&quot;&gt;&lt;div style=&quot;text-align: center&quot;&gt;&lt;b&gt;%c4Description%&lt;/b&gt;&lt;/div&gt;" id="G_2vIIOp6yIZ4K_ppZqW-14">
          <mxCell style="endArrow=blockThin;html=1;fontSize=10;fontColor=#404040;strokeWidth=1;endFill=1;strokeColor=#828282;elbow=vertical;metaEdit=1;endSize=14;startSize=14;jumpStyle=arc;jumpSize=16;rounded=0;exitX=0.5;exitY=1;exitDx=0;exitDy=0;exitPerimeter=0;entryX=0.5;entryY=0;entryDx=0;entryDy=0;entryPerimeter=0;dashed=1;dashPattern=12 12;" parent="1" source="G_2vIIOp6yIZ4K_ppZqW-5" target="G_2vIIOp6yIZ4K_ppZqW-15" edge="1">
            <mxGeometry x="0.0052" width="240" relative="1" as="geometry">
              <mxPoint x="450" y="620" as="sourcePoint" />
              <mxPoint x="560" y="585" as="targetPoint" />
              <mxPoint as="offset" />
            </mxGeometry>
          </mxCell>
        </object>
        <object placeholders="1" c4Name="Zewnętrzny system płatności" c4Type="Software System" c4Description="Umożliwia płatności używając Przelewy24" label="&lt;font style=&quot;font-size: 16px&quot;&gt;&lt;b&gt;%c4Name%&lt;/b&gt;&lt;/font&gt;&lt;div&gt;[%c4Type%]&lt;/div&gt;&lt;br&gt;&lt;div&gt;&lt;font style=&quot;font-size: 11px&quot;&gt;&lt;font color=&quot;#cccccc&quot;&gt;%c4Description%&lt;/font&gt;&lt;/div&gt;" id="G_2vIIOp6yIZ4K_ppZqW-15">
          <mxCell style="rounded=1;whiteSpace=wrap;html=1;labelBackgroundColor=none;fillColor=#8C8496;fontColor=#ffffff;align=center;arcSize=10;strokeColor=#736782;metaEdit=1;resizable=0;points=[[0.25,0,0],[0.5,0,0],[0.75,0,0],[1,0.25,0],[1,0.5,0],[1,0.75,0],[0.75,1,0],[0.5,1,0],[0.25,1,0],[0,0.75,0],[0,0.5,0],[0,0.25,0]];" parent="1" vertex="1">
            <mxGeometry x="150" y="560" width="240" height="120" as="geometry" />
          </mxCell>
        </object>
        <object placeholders="1" c4Name="Prywatny użytkownik systemu dla motoryzacji" c4Type="Person" c4Description="Użytkownik systemu z osobistymi danymi" label="&lt;font style=&quot;font-size: 16px&quot;&gt;&lt;b&gt;%c4Name%&lt;/b&gt;&lt;/font&gt;&lt;div&gt;[%c4Type%]&lt;/div&gt;&lt;br&gt;&lt;div&gt;&lt;font style=&quot;font-size: 11px&quot;&gt;&lt;font color=&quot;#cccccc&quot;&gt;%c4Description%&lt;/font&gt;&lt;/div&gt;" id="G_2vIIOp6yIZ4K_ppZqW-17">
          <mxCell style="html=1;fontSize=11;dashed=0;whiteSpace=wrap;fillColor=#660000;strokeColor=#6D1F00;shape=mxgraph.c4.person2;align=center;metaEdit=1;points=[[0.5,0,0],[1,0.5,0],[1,0.75,0],[0.75,1,0],[0.5,1,0],[0.25,1,0],[0,0.75,0],[0,0.5,0]];resizable=0;fontColor=#ffffff;" parent="1" vertex="1">
            <mxGeometry x="390" y="1160" width="200" height="180" as="geometry" />
          </mxCell>
        </object>
        <object placeholders="1" c4Name="Aplikacja internetowa" c4Type="Container" c4Technology="JavaScript i Angular" c4Description="Dostarcza funkcjonalność aukcji internetowych dla użytkownika przez jego przeglądarke" label="&lt;font style=&quot;font-size: 16px&quot;&gt;&lt;b&gt;%c4Name%&lt;/b&gt;&lt;/font&gt;&lt;div&gt;[%c4Type%:&amp;nbsp;%c4Technology%]&lt;/div&gt;&lt;br&gt;&lt;div&gt;&lt;font style=&quot;font-size: 11px&quot;&gt;&lt;font color=&quot;#E6E6E6&quot;&gt;%c4Description%&lt;/font&gt;&lt;/div&gt;" id="G_2vIIOp6yIZ4K_ppZqW-21">
          <mxCell style="shape=mxgraph.c4.webBrowserContainer2;whiteSpace=wrap;html=1;boundedLbl=1;rounded=0;labelBackgroundColor=none;strokeColor=none;fillColor=#a20025;strokeColor=#118ACD;strokeColor2=#0E7DAD;fontSize=12;fontColor=#ffffff;align=center;metaEdit=1;points=[[0.5,0,0],[1,0.25,0],[1,0.5,0],[1,0.75,0],[0.5,1,0],[0,0.75,0],[0,0.5,0],[0,0.25,0]];resizable=0;gradientColor=none;" parent="1" vertex="1">
            <mxGeometry x="220" y="1460" width="240" height="160" as="geometry" />
          </mxCell>
        </object>
        <object placeholders="1" c4Name="Aplikacja mobilna" c4Type="Container" c4Technology="Xamarin" c4Description="Zapewnia okrojoną treść aukcji internetowych dla użytkownika poprzez urządzenie mobilne" label="&lt;font style=&quot;font-size: 16px&quot;&gt;&lt;b&gt;%c4Name%&lt;/b&gt;&lt;/font&gt;&lt;div&gt;[%c4Type%:&amp;nbsp;%c4Technology%]&lt;/div&gt;&lt;br&gt;&lt;div&gt;&lt;font style=&quot;font-size: 11px&quot;&gt;&lt;font color=&quot;#E6E6E6&quot;&gt;%c4Description%&lt;/font&gt;&lt;/div&gt;" id="G_2vIIOp6yIZ4K_ppZqW-25">
          <mxCell style="shape=mxgraph.c4.webBrowserContainer2;whiteSpace=wrap;html=1;boundedLbl=1;rounded=0;labelBackgroundColor=none;strokeColor=#6F0000;fillColor=#a20025;strokeColor=#118ACD;strokeColor2=#0E7DAD;fontSize=12;fontColor=#ffffff;align=center;metaEdit=1;points=[[0.5,0,0],[1,0.25,0],[1,0.5,0],[1,0.75,0],[0.5,1,0],[0,0.75,0],[0,0.5,0],[0,0.25,0]];resizable=0;" parent="1" vertex="1">
            <mxGeometry x="540" y="1460" width="240" height="160" as="geometry" />
          </mxCell>
        </object>
        <object placeholders="1" c4Type="Relationship" c4Description="Wyświetla aukcje &#xa;i dokonuje płatności&#xa;za pomocą" label="&lt;div style=&quot;text-align: left&quot;&gt;&lt;div style=&quot;text-align: center&quot;&gt;&lt;b&gt;%c4Description%&lt;/b&gt;&lt;/div&gt;" id="G_2vIIOp6yIZ4K_ppZqW-26">
          <mxCell style="endArrow=blockThin;html=1;fontSize=10;fontColor=#404040;strokeWidth=1;endFill=1;strokeColor=#828282;elbow=vertical;metaEdit=1;endSize=14;startSize=14;jumpStyle=arc;jumpSize=16;rounded=0;exitX=0.25;exitY=1;exitDx=0;exitDy=0;exitPerimeter=0;entryX=0.5;entryY=0;entryDx=0;entryDy=0;entryPerimeter=0;" parent="1" source="G_2vIIOp6yIZ4K_ppZqW-17" target="G_2vIIOp6yIZ4K_ppZqW-21" edge="1">
            <mxGeometry x="-0.0058" width="240" relative="1" as="geometry">
              <mxPoint x="320" y="1400" as="sourcePoint" />
              <mxPoint x="560" y="1400" as="targetPoint" />
              <mxPoint as="offset" />
            </mxGeometry>
          </mxCell>
        </object>
        <object placeholders="1" c4Type="Relationship" c4Description="Wyświetla aukcje&#xa;i dokonuje płatności &#xa;za pomocą" label="&lt;div style=&quot;text-align: left&quot;&gt;&lt;div style=&quot;text-align: center&quot;&gt;&lt;b&gt;%c4Description%&lt;/b&gt;&lt;/div&gt;" id="G_2vIIOp6yIZ4K_ppZqW-27">
          <mxCell style="endArrow=blockThin;html=1;fontSize=10;fontColor=#404040;strokeWidth=1;endFill=1;strokeColor=#828282;elbow=vertical;metaEdit=1;endSize=14;startSize=14;jumpStyle=arc;jumpSize=16;rounded=0;exitX=0.75;exitY=1;exitDx=0;exitDy=0;exitPerimeter=0;entryX=0.5;entryY=0;entryDx=0;entryDy=0;entryPerimeter=0;" parent="1" source="G_2vIIOp6yIZ4K_ppZqW-17" target="G_2vIIOp6yIZ4K_ppZqW-25" edge="1">
            <mxGeometry width="240" relative="1" as="geometry">
              <mxPoint x="580" y="1380" as="sourcePoint" />
              <mxPoint x="820" y="1380" as="targetPoint" />
            </mxGeometry>
          </mxCell>
        </object>
        <object placeholders="1" c4Type="Relationship" c4Description="Wysyła wywołanie API do&#xa;[JSON/HTTPS]" label="&lt;div style=&quot;text-align: left&quot;&gt;&lt;div style=&quot;text-align: center&quot;&gt;&lt;b&gt;%c4Description%&lt;/b&gt;&lt;/div&gt;" id="G_2vIIOp6yIZ4K_ppZqW-31">
          <mxCell style="endArrow=blockThin;html=1;fontSize=10;fontColor=#404040;strokeWidth=1;endFill=1;strokeColor=#828282;elbow=vertical;metaEdit=1;endSize=14;startSize=14;jumpStyle=arc;jumpSize=16;rounded=0;exitX=0.5;exitY=1;exitDx=0;exitDy=0;exitPerimeter=0;dashed=1;dashPattern=12 12;" parent="1" source="G_2vIIOp6yIZ4K_ppZqW-21" edge="1">
            <mxGeometry width="240" relative="1" as="geometry">
              <mxPoint x="350" y="1630.0000000000005" as="sourcePoint" />
              <mxPoint x="460" y="1740" as="targetPoint" />
              <Array as="points">
                <mxPoint x="460" y="1750" />
              </Array>
            </mxGeometry>
          </mxCell>
        </object>
        <object placeholders="1" c4Type="Relationship" c4Description="Wysyła wywołanie API do&#xa;[JSON/HTTPS]" label="&lt;div style=&quot;text-align: left&quot;&gt;&lt;div style=&quot;text-align: center&quot;&gt;&lt;b&gt;%c4Description%&lt;/b&gt;&lt;/div&gt;" id="G_2vIIOp6yIZ4K_ppZqW-32">
          <mxCell style="endArrow=blockThin;html=1;fontSize=10;fontColor=#404040;strokeWidth=1;endFill=1;strokeColor=#828282;elbow=vertical;metaEdit=1;endSize=14;startSize=14;jumpStyle=arc;jumpSize=16;rounded=0;exitX=0.5;exitY=1;exitDx=0;exitDy=0;exitPerimeter=0;dashed=1;dashPattern=12 12;" parent="1" source="G_2vIIOp6yIZ4K_ppZqW-25" edge="1">
            <mxGeometry width="240" relative="1" as="geometry">
              <mxPoint x="660" y="1710" as="sourcePoint" />
              <mxPoint x="580" y="1750" as="targetPoint" />
            </mxGeometry>
          </mxCell>
        </object>
        <object placeholders="1" c4Name="System E-mail" c4Type="Software System" c4Description="System E-mail Microsoft Exchange" label="&lt;font style=&quot;font-size: 16px&quot;&gt;&lt;b&gt;%c4Name%&lt;/b&gt;&lt;/font&gt;&lt;div&gt;[%c4Type%]&lt;/div&gt;&lt;br&gt;&lt;div&gt;&lt;font style=&quot;font-size: 11px&quot;&gt;&lt;font color=&quot;#cccccc&quot;&gt;%c4Description%&lt;/font&gt;&lt;/div&gt;" id="G_2vIIOp6yIZ4K_ppZqW-33">
          <mxCell style="rounded=1;whiteSpace=wrap;html=1;labelBackgroundColor=none;fillColor=#8C8496;fontColor=#ffffff;align=center;arcSize=10;strokeColor=#736782;metaEdit=1;resizable=0;points=[[0.25,0,0],[0.5,0,0],[0.75,0,0],[1,0.25,0],[1,0.5,0],[1,0.75,0],[0.75,1,0],[0.5,1,0],[0.25,1,0],[0,0.75,0],[0,0.5,0],[0,0.25,0]];" parent="1" vertex="1">
            <mxGeometry x="940" y="1490" width="240" height="120" as="geometry" />
          </mxCell>
        </object>
        <object placeholders="1" c4Type="Relationship" c4Description="Wysyła E-mail do" label="&lt;div style=&quot;text-align: left&quot;&gt;&lt;div style=&quot;text-align: center&quot;&gt;&lt;b&gt;%c4Description%&lt;/b&gt;&lt;/div&gt;" id="G_2vIIOp6yIZ4K_ppZqW-34">
          <mxCell style="endArrow=blockThin;html=1;fontSize=10;fontColor=#404040;strokeWidth=1;endFill=1;strokeColor=#828282;elbow=vertical;metaEdit=1;endSize=14;startSize=14;jumpStyle=arc;jumpSize=16;rounded=0;exitX=0.015;exitY=0.012;exitDx=0;exitDy=0;exitPerimeter=0;entryX=1;entryY=0.75;entryDx=0;entryDy=0;entryPerimeter=0;dashed=1;dashPattern=12 12;" parent="1" source="G_2vIIOp6yIZ4K_ppZqW-33" target="G_2vIIOp6yIZ4K_ppZqW-17" edge="1">
            <mxGeometry width="240" relative="1" as="geometry">
              <mxPoint x="890" y="1400" as="sourcePoint" />
              <mxPoint x="1130" y="1400" as="targetPoint" />
            </mxGeometry>
          </mxCell>
        </object>
        <object placeholders="1" c4Name="Baza danych" c4Type="Container" c4Technology="Oracle Database 12" c4Description="Zbiera dane logowania, informacje o aukcjach, płatnościach etc." label="&lt;font style=&quot;font-size: 16px&quot;&gt;&lt;b&gt;%c4Name%&lt;/b&gt;&lt;/font&gt;&lt;div&gt;[%c4Type%:&amp;nbsp;%c4Technology%]&lt;/div&gt;&lt;br&gt;&lt;div&gt;&lt;font style=&quot;font-size: 11px&quot;&gt;&lt;font color=&quot;#E6E6E6&quot;&gt;%c4Description%&lt;/font&gt;&lt;/div&gt;" id="G_2vIIOp6yIZ4K_ppZqW-35">
          <mxCell style="shape=cylinder3;size=15;whiteSpace=wrap;html=1;boundedLbl=1;rounded=0;labelBackgroundColor=none;fillColor=#a20025;fontSize=12;fontColor=#ffffff;align=center;strokeColor=#6F0000;metaEdit=1;points=[[0.5,0,0],[1,0.25,0],[1,0.5,0],[1,0.75,0],[0.5,1,0],[0,0.75,0],[0,0.5,0],[0,0.25,0]];resizable=0;" parent="1" vertex="1">
            <mxGeometry x="-150" y="1754" width="240" height="120" as="geometry" />
          </mxCell>
        </object>
        <object placeholders="1" c4Name="Aplikacja API" c4Type="Containter Java and Spring MVC" c4Description="Zapewnia funkcjonalność &#xa;aukcji internetowych za pomocą JSON/HTTPS API." label="&lt;font style=&quot;font-size: 16px&quot;&gt;&lt;b&gt;%c4Name%&lt;/b&gt;&lt;/font&gt;&lt;div&gt;[%c4Type%]&lt;/div&gt;&lt;br&gt;&lt;div&gt;&lt;font style=&quot;font-size: 11px&quot;&gt;&lt;font color=&quot;#cccccc&quot;&gt;%c4Description%&lt;/font&gt;&lt;/div&gt;" id="G_2vIIOp6yIZ4K_ppZqW-36">
          <mxCell style="rounded=1;whiteSpace=wrap;html=1;labelBackgroundColor=none;fillColor=#a20025;fontColor=#ffffff;align=center;arcSize=10;strokeColor=#6F0000;metaEdit=1;resizable=0;points=[[0.25,0,0],[0.5,0,0],[0.75,0,0],[1,0.25,0],[1,0.5,0],[1,0.75,0],[0.75,1,0],[0.5,1,0],[0.25,1,0],[0,0.75,0],[0,0.5,0],[0,0.25,0]];" parent="1" vertex="1">
            <mxGeometry x="400" y="1754" width="240" height="120" as="geometry" />
          </mxCell>
        </object>
        <object placeholders="1" c4Type="Relationship" c4Description="Czyta dane z i wysyła do" label="&lt;div style=&quot;text-align: left&quot;&gt;&lt;div style=&quot;text-align: center&quot;&gt;&lt;b&gt;%c4Description%&lt;/b&gt;&lt;/div&gt;" id="G_2vIIOp6yIZ4K_ppZqW-38">
          <mxCell style="endArrow=blockThin;html=1;fontSize=10;fontColor=#404040;strokeWidth=1;endFill=1;strokeColor=#828282;elbow=vertical;metaEdit=1;endSize=14;startSize=14;jumpStyle=arc;jumpSize=16;rounded=0;edgeStyle=orthogonalEdgeStyle;exitX=0;exitY=0.5;exitDx=0;exitDy=0;exitPerimeter=0;entryX=1;entryY=0.5;entryDx=0;entryDy=0;entryPerimeter=0;dashed=1;dashPattern=12 12;" parent="1" source="G_2vIIOp6yIZ4K_ppZqW-36" target="G_2vIIOp6yIZ4K_ppZqW-35" edge="1">
            <mxGeometry width="240" relative="1" as="geometry">
              <mxPoint x="180" y="1810" as="sourcePoint" />
              <mxPoint x="420" y="1810" as="targetPoint" />
            </mxGeometry>
          </mxCell>
        </object>
        <object placeholders="1" c4Type="Relationship" c4Description="Wysyła E-maile za pomocą" label="&lt;div style=&quot;text-align: left&quot;&gt;&lt;div style=&quot;text-align: center&quot;&gt;&lt;b&gt;%c4Description%&lt;/b&gt;&lt;/div&gt;" id="G_2vIIOp6yIZ4K_ppZqW-39">
          <mxCell style="endArrow=blockThin;html=1;fontSize=10;fontColor=#404040;strokeWidth=1;endFill=1;strokeColor=#828282;elbow=vertical;metaEdit=1;endSize=14;startSize=14;jumpStyle=arc;jumpSize=16;rounded=0;exitX=0.986;exitY=0.018;exitDx=0;exitDy=0;exitPerimeter=0;entryX=0;entryY=0.75;entryDx=0;entryDy=0;entryPerimeter=0;dashed=1;dashPattern=12 12;" parent="1" source="G_2vIIOp6yIZ4K_ppZqW-36" target="G_2vIIOp6yIZ4K_ppZqW-33" edge="1">
            <mxGeometry x="-0.0006" width="240" relative="1" as="geometry">
              <mxPoint x="690" y="1740" as="sourcePoint" />
              <mxPoint x="930" y="1740" as="targetPoint" />
              <mxPoint as="offset" />
            </mxGeometry>
          </mxCell>
        </object>
        <object placeholders="1" c4Name="System aukcyjny dla motoryzacji" c4Type="SystemScopeBoundary" c4Application="Software System" label="&lt;font style=&quot;font-size: 16px&quot;&gt;&lt;b&gt;&lt;div style=&quot;text-align: left&quot;&gt;%c4Name%&lt;/div&gt;&lt;/b&gt;&lt;/font&gt;&lt;div style=&quot;text-align: left&quot;&gt;[%c4Application%]&lt;/div&gt;" id="G_2vIIOp6yIZ4K_ppZqW-43">
          <mxCell style="rounded=1;fontSize=11;whiteSpace=wrap;html=1;dashed=1;arcSize=20;fillColor=none;strokeColor=#666666;fontColor=#333333;labelBackgroundColor=none;align=left;verticalAlign=bottom;labelBorderColor=none;spacingTop=0;spacing=10;dashPattern=8 4;metaEdit=1;rotatable=0;perimeter=rectanglePerimeter;noLabel=0;labelPadding=0;allowArrows=0;connectable=0;expand=0;recursiveResize=0;editable=1;pointerEvents=0;absoluteArcSize=1;points=[[0.25,0,0],[0.5,0,0],[0.75,0,0],[1,0.25,0],[1,0.5,0],[1,0.75,0],[0.75,1,0],[0.5,1,0],[0.25,1,0],[0,0.75,0],[0,0.5,0],[0,0.25,0]];" parent="1" vertex="1">
            <mxGeometry x="-160" y="1440" width="980" height="510" as="geometry" />
          </mxCell>
        </object>
        <object placeholders="1" c4Type="Relationship" c4Description="Dokonuje płatności&#xa;za pomocą" label="&lt;div style=&quot;text-align: left&quot;&gt;&lt;div style=&quot;text-align: center&quot;&gt;&lt;b&gt;%c4Description%&lt;/b&gt;&lt;/div&gt;" id="G_2vIIOp6yIZ4K_ppZqW-47">
          <mxCell style="endArrow=blockThin;html=1;fontSize=10;fontColor=#404040;strokeWidth=1;endFill=1;strokeColor=#828282;elbow=vertical;metaEdit=1;endSize=14;startSize=14;jumpStyle=arc;jumpSize=16;rounded=0;exitX=1;exitY=0.5;exitDx=0;exitDy=0;exitPerimeter=0;dashed=1;dashPattern=12 12;entryX=0;entryY=0.5;entryDx=0;entryDy=0;entryPerimeter=0;" parent="1" source="G_2vIIOp6yIZ4K_ppZqW-36" target="G_2vIIOp6yIZ4K_ppZqW-48" edge="1">
            <mxGeometry width="240" relative="1" as="geometry">
              <mxPoint x="800" y="1960" as="sourcePoint" />
              <mxPoint x="910" y="2030" as="targetPoint" />
            </mxGeometry>
          </mxCell>
        </object>
        <object placeholders="1" c4Name="Zewnętrzny system płatności" c4Type="Software System" c4Description="Pozwala dokonywać płatności na aukcjach za pomocą Przelewy24" label="&lt;font style=&quot;font-size: 16px&quot;&gt;&lt;b&gt;%c4Name%&lt;/b&gt;&lt;/font&gt;&lt;div&gt;[%c4Type%]&lt;/div&gt;&lt;br&gt;&lt;div&gt;&lt;font style=&quot;font-size: 11px&quot;&gt;&lt;font color=&quot;#cccccc&quot;&gt;%c4Description%&lt;/font&gt;&lt;/div&gt;" id="G_2vIIOp6yIZ4K_ppZqW-48">
          <mxCell style="rounded=1;whiteSpace=wrap;html=1;labelBackgroundColor=none;fillColor=#8C8496;fontColor=#ffffff;align=center;arcSize=10;strokeColor=#736782;metaEdit=1;resizable=0;points=[[0.25,0,0],[0.5,0,0],[0.75,0,0],[1,0.25,0],[1,0.5,0],[1,0.75,0],[0.75,1,0],[0.5,1,0],[0.25,1,0],[0,0.75,0],[0,0.5,0],[0,0.25,0]];" parent="1" vertex="1">
            <mxGeometry x="940" y="1754" width="240" height="120" as="geometry" />
          </mxCell>
        </object>
        <mxCell id="7iBCfK0Fx1MPOXK75AvC-1" value="&lt;font style=&quot;font-size: 30px;&quot;&gt;C1&lt;/font&gt;" style="text;html=1;align=center;verticalAlign=middle;resizable=0;points=[];autosize=1;strokeColor=none;fillColor=none;" parent="1" vertex="1">
          <mxGeometry x="-90" y="170" width="60" height="50" as="geometry" />
        </mxCell>
        <mxCell id="7iBCfK0Fx1MPOXK75AvC-2" value="&lt;font style=&quot;font-size: 30px;&quot;&gt;C2&lt;/font&gt;&lt;div&gt;&lt;br&gt;&lt;/div&gt;" style="text;html=1;align=center;verticalAlign=middle;resizable=0;points=[];autosize=1;strokeColor=none;fillColor=none;" parent="1" vertex="1">
          <mxGeometry x="-120" y="1333" width="60" height="60" as="geometry" />
        </mxCell>
        <mxCell id="7iBCfK0Fx1MPOXK75AvC-3" value="&lt;font style=&quot;font-size: 30px;&quot;&gt;C3&lt;/font&gt;&lt;div&gt;&lt;br&gt;&lt;/div&gt;" style="text;html=1;align=center;verticalAlign=middle;resizable=0;points=[];autosize=1;strokeColor=none;fillColor=none;" parent="1" vertex="1">
          <mxGeometry x="880" width="60" height="60" as="geometry" />
        </mxCell>
        <object placeholders="1" c4Name="Aplikacja internetowa" c4Type="Container" c4Technology=" JavaScript, Angular " c4Description="Dostarcza funkcjonalność aukcji internetowych dla użytkownika przez jego przeglądarke" label="&lt;font style=&quot;font-size: 16px&quot;&gt;&lt;b&gt;%c4Name%&lt;/b&gt;&lt;/font&gt;&lt;div&gt;[%c4Type%:&amp;nbsp;%c4Technology%]&lt;/div&gt;&lt;br&gt;&lt;div&gt;&lt;font style=&quot;font-size: 11px&quot;&gt;&lt;font color=&quot;#E6E6E6&quot;&gt;%c4Description%&lt;/font&gt;&lt;/div&gt;" id="7iBCfK0Fx1MPOXK75AvC-4">
          <mxCell style="shape=mxgraph.c4.webBrowserContainer2;whiteSpace=wrap;html=1;boundedLbl=1;rounded=0;labelBackgroundColor=none;strokeColor=#118ACD;fillColor=#23A2D9;strokeColor=#118ACD;strokeColor2=#0E7DAD;fontSize=12;fontColor=#ffffff;align=center;metaEdit=1;points=[[0.5,0,0],[1,0.25,0],[1,0.5,0],[1,0.75,0],[0.5,1,0],[0,0.75,0],[0,0.5,0],[0,0.25,0]];resizable=0;" parent="1" vertex="1">
            <mxGeometry x="1400" y="78" width="240" height="160" as="geometry" />
          </mxCell>
        </object>
        <object placeholders="1" c4Name="Aplikacja mobilna" c4Type="Container" c4Technology="Xamarin" c4Description="Zapewnia okrojoną treść aukcji internetowych dla użytkownika poprzez urządzenie mobilne" label="&lt;font style=&quot;font-size: 16px&quot;&gt;&lt;b&gt;%c4Name%&lt;/b&gt;&lt;/font&gt;&lt;div&gt;[%c4Type%:&amp;nbsp;%c4Technology%]&lt;/div&gt;&lt;br&gt;&lt;div&gt;&lt;font style=&quot;font-size: 11px&quot;&gt;&lt;font color=&quot;#E6E6E6&quot;&gt;%c4Description%&lt;/font&gt;&lt;/div&gt;" id="7iBCfK0Fx1MPOXK75AvC-5">
          <mxCell style="shape=mxgraph.c4.webBrowserContainer2;whiteSpace=wrap;html=1;boundedLbl=1;rounded=0;labelBackgroundColor=none;strokeColor=#118ACD;fillColor=#23A2D9;strokeColor=#118ACD;strokeColor2=#0E7DAD;fontSize=12;fontColor=#ffffff;align=center;metaEdit=1;points=[[0.5,0,0],[1,0.25,0],[1,0.5,0],[1,0.75,0],[0.5,1,0],[0,0.75,0],[0,0.5,0],[0,0.25,0]];resizable=0;" parent="1" vertex="1">
            <mxGeometry x="1890" y="78" width="240" height="160" as="geometry" />
          </mxCell>
        </object>
        <object placeholders="1" c4Type="Relationship" id="7iBCfK0Fx1MPOXK75AvC-6">
          <mxCell style="endArrow=blockThin;html=1;fontSize=10;fontColor=#404040;strokeWidth=1;endFill=1;strokeColor=#828282;elbow=vertical;metaEdit=1;endSize=14;startSize=14;jumpStyle=arc;jumpSize=16;rounded=0;exitX=0.5;exitY=1;exitDx=0;exitDy=0;exitPerimeter=0;dashed=1;entryX=0.25;entryY=0;entryDx=0;entryDy=0;entryPerimeter=0;" parent="1" source="7iBCfK0Fx1MPOXK75AvC-4" target="7iBCfK0Fx1MPOXK75AvC-7" edge="1">
            <mxGeometry width="240" relative="1" as="geometry">
              <mxPoint x="1600" y="590" as="sourcePoint" />
              <mxPoint x="1470" y="370" as="targetPoint" />
            </mxGeometry>
          </mxCell>
        </object>
        <mxCell id="7iBCfK0Fx1MPOXK75AvC-34" value="wysyła wywołanie&lt;div&gt;&amp;nbsp;API do&lt;/div&gt;" style="edgeLabel;html=1;align=center;verticalAlign=middle;resizable=0;points=[];" parent="7iBCfK0Fx1MPOXK75AvC-6" vertex="1" connectable="0">
          <mxGeometry x="0.0847" y="3" relative="1" as="geometry">
            <mxPoint as="offset" />
          </mxGeometry>
        </mxCell>
        <object placeholders="1" c4Name="Komponent zarządzania użytkownikiem" c4Type="Component" c4Technology="e.g. Spring Service" c4Description="Zarządza rejestracją i logowaniem użtykownika oraz umożliwia modyfikacje hasła" label="&lt;font style=&quot;font-size: 16px&quot;&gt;&lt;b&gt;%c4Name%&lt;/b&gt;&lt;/font&gt;&lt;div&gt;[%c4Type%: %c4Technology%]&lt;/div&gt;&lt;br&gt;&lt;div&gt;&lt;font style=&quot;font-size: 11px&quot;&gt;%c4Description%&lt;/font&gt;&lt;/div&gt;" id="7iBCfK0Fx1MPOXK75AvC-7">
          <mxCell style="rounded=1;whiteSpace=wrap;html=1;labelBackgroundColor=none;fillColor=#63BEF2;fontColor=#ffffff;align=center;arcSize=6;strokeColor=#2086C9;metaEdit=1;resizable=0;points=[[0.25,0,0],[0.5,0,0],[0.75,0,0],[1,0.25,0],[1,0.5,0],[1,0.75,0],[0.75,1,0],[0.5,1,0],[0.25,1,0],[0,0.75,0],[0,0.5,0],[0,0.25,0]];" parent="1" vertex="1">
            <mxGeometry x="1690" y="370" width="240" height="120" as="geometry" />
          </mxCell>
        </object>
        <object placeholders="1" c4Name="System wysyłania E-maili" c4Type="Component" c4Technology="e.g. Spring Service" c4Description="Wysyła E-maile do użytkowników" label="&lt;font style=&quot;font-size: 16px&quot;&gt;&lt;b&gt;%c4Name%&lt;/b&gt;&lt;/font&gt;&lt;div&gt;[%c4Type%: %c4Technology%]&lt;/div&gt;&lt;br&gt;&lt;div&gt;&lt;font style=&quot;font-size: 11px&quot;&gt;%c4Description%&lt;/font&gt;&lt;/div&gt;" id="7iBCfK0Fx1MPOXK75AvC-13">
          <mxCell style="rounded=1;whiteSpace=wrap;html=1;labelBackgroundColor=none;fillColor=#63BEF2;fontColor=#ffffff;align=center;arcSize=6;strokeColor=#2086C9;metaEdit=1;resizable=0;points=[[0.25,0,0],[0.5,0,0],[0.75,0,0],[1,0.25,0],[1,0.5,0],[1,0.75,0],[0.75,1,0],[0.5,1,0],[0.25,1,0],[0,0.75,0],[0,0.5,0],[0,0.25,0]];" parent="1" vertex="1">
            <mxGeometry x="1690" y="540" width="240" height="120" as="geometry" />
          </mxCell>
        </object>
        <object placeholders="1" c4Type="Relationship" id="7iBCfK0Fx1MPOXK75AvC-14">
          <mxCell style="endArrow=blockThin;html=1;fontSize=10;fontColor=#404040;strokeWidth=1;endFill=1;strokeColor=#828282;elbow=vertical;metaEdit=1;endSize=14;startSize=14;jumpStyle=arc;jumpSize=16;rounded=0;exitX=0.25;exitY=1;exitDx=0;exitDy=0;exitPerimeter=0;entryX=0.5;entryY=0;entryDx=0;entryDy=0;entryPerimeter=0;dashed=1;" parent="1" source="7iBCfK0Fx1MPOXK75AvC-7" target="7iBCfK0Fx1MPOXK75AvC-17" edge="1">
            <mxGeometry width="240" relative="1" as="geometry">
              <mxPoint x="1270" y="580" as="sourcePoint" />
              <mxPoint x="1370.6399999999999" y="569.76" as="targetPoint" />
            </mxGeometry>
          </mxCell>
        </object>
        <mxCell id="7iBCfK0Fx1MPOXK75AvC-39" value="Czyta z i zapisuje do" style="edgeLabel;html=1;align=center;verticalAlign=middle;resizable=0;points=[];" parent="7iBCfK0Fx1MPOXK75AvC-14" vertex="1" connectable="0">
          <mxGeometry x="0.5931" y="-1" relative="1" as="geometry">
            <mxPoint as="offset" />
          </mxGeometry>
        </mxCell>
        <object placeholders="1" c4Name="System E-mail" c4Type="Software System" c4Description="System E-mail Microsoft Exchange" label="&lt;font style=&quot;font-size: 16px&quot;&gt;&lt;b&gt;%c4Name%&lt;/b&gt;&lt;/font&gt;&lt;div&gt;[%c4Type%]&lt;/div&gt;&lt;br&gt;&lt;div&gt;&lt;font style=&quot;font-size: 11px&quot;&gt;&lt;font color=&quot;#cccccc&quot;&gt;%c4Description%&lt;/font&gt;&lt;/div&gt;" id="7iBCfK0Fx1MPOXK75AvC-16">
          <mxCell style="rounded=1;whiteSpace=wrap;html=1;labelBackgroundColor=none;fillColor=#8C8496;fontColor=#ffffff;align=center;arcSize=10;strokeColor=#736782;metaEdit=1;resizable=0;points=[[0.25,0,0],[0.5,0,0],[0.75,0,0],[1,0.25,0],[1,0.5,0],[1,0.75,0],[0.75,1,0],[0.5,1,0],[0.25,1,0],[0,0.75,0],[0,0.5,0],[0,0.25,0]];" parent="1" vertex="1">
            <mxGeometry x="1640" y="760" width="240" height="120" as="geometry" />
          </mxCell>
        </object>
        <object placeholders="1" c4Name="Baza danych" c4Type="Container" c4Technology="Oracle Database 12" c4Description="Zbiera dane logowania, informacje o aukcjach, płatnościach etc." label="&lt;font style=&quot;font-size: 16px&quot;&gt;&lt;b&gt;%c4Name%&lt;/b&gt;&lt;/font&gt;&lt;div&gt;[%c4Type%:&amp;nbsp;%c4Technology%]&lt;/div&gt;&lt;br&gt;&lt;div&gt;&lt;font style=&quot;font-size: 11px&quot;&gt;&lt;font color=&quot;#E6E6E6&quot;&gt;%c4Description%&lt;/font&gt;&lt;/div&gt;" id="7iBCfK0Fx1MPOXK75AvC-17">
          <mxCell style="shape=cylinder3;size=15;whiteSpace=wrap;html=1;boundedLbl=1;rounded=0;labelBackgroundColor=none;fillColor=#1ba1e2;fontSize=12;fontColor=#ffffff;align=center;strokeColor=#006EAF;metaEdit=1;points=[[0.5,0,0],[1,0.25,0],[1,0.5,0],[1,0.75,0],[0.5,1,0],[0,0.75,0],[0,0.5,0],[0,0.25,0]];resizable=0;" parent="1" vertex="1">
            <mxGeometry x="1241" y="760" width="240" height="120" as="geometry" />
          </mxCell>
        </object>
        <object placeholders="1" c4Name="Zewnętrzny system płatności" c4Type="Software System" c4Description="Pozwala dokonywać płatności na aukcjach za pomocą Przelewy24 itp" label="&lt;font style=&quot;font-size: 16px&quot;&gt;&lt;b&gt;%c4Name%&lt;/b&gt;&lt;/font&gt;&lt;div&gt;[%c4Type%]&lt;/div&gt;&lt;br&gt;&lt;div&gt;&lt;font style=&quot;font-size: 11px&quot;&gt;&lt;font color=&quot;#cccccc&quot;&gt;%c4Description%&lt;/font&gt;&lt;/div&gt;" id="7iBCfK0Fx1MPOXK75AvC-18">
          <mxCell style="rounded=1;whiteSpace=wrap;html=1;labelBackgroundColor=none;fillColor=#8C8496;fontColor=#ffffff;align=center;arcSize=10;strokeColor=#736782;metaEdit=1;resizable=0;points=[[0.25,0,0],[0.5,0,0],[0.75,0,0],[1,0.25,0],[1,0.5,0],[1,0.75,0],[0.75,1,0],[0.5,1,0],[0.25,1,0],[0,0.75,0],[0,0.5,0],[0,0.25,0]];" parent="1" vertex="1">
            <mxGeometry x="2110" y="760" width="240" height="120" as="geometry" />
          </mxCell>
        </object>
        <object placeholders="1" c4Name="Kontroler płatności strony użytkownika" c4Type="Container" c4Description="Pozwala użytkownikowi wybrać sposób płatności" label="&lt;font style=&quot;font-size: 16px&quot;&gt;&lt;b&gt;%c4Name%&lt;/b&gt;&lt;/font&gt;&lt;div&gt;[%c4Type%: %c4Technology%]&lt;/div&gt;&lt;br&gt;&lt;div&gt;&lt;font style=&quot;font-size: 11px&quot;&gt;&lt;font color=&quot;#E6E6E6&quot;&gt;%c4Description%&lt;/font&gt;&lt;/div&gt;" id="7iBCfK0Fx1MPOXK75AvC-19">
          <mxCell style="rounded=1;whiteSpace=wrap;html=1;fontSize=11;labelBackgroundColor=none;fillColor=#23A2D9;fontColor=#ffffff;align=center;arcSize=10;strokeColor=#0E7DAD;metaEdit=1;resizable=0;points=[[0.25,0,0],[0.5,0,0],[0.75,0,0],[1,0.25,0],[1,0.5,0],[1,0.75,0],[0.75,1,0],[0.5,1,0],[0.25,1,0],[0,0.75,0],[0,0.5,0],[0,0.25,0]];" parent="1" vertex="1">
            <mxGeometry x="2110" y="520" width="240" height="120" as="geometry" />
          </mxCell>
        </object>
        <object placeholders="1" c4Type="Relationship" id="7iBCfK0Fx1MPOXK75AvC-21">
          <mxCell style="endArrow=blockThin;html=1;fontSize=10;fontColor=#404040;strokeWidth=1;endFill=1;strokeColor=#828282;elbow=vertical;metaEdit=1;endSize=14;startSize=14;jumpStyle=arc;jumpSize=16;rounded=0;exitX=0.5;exitY=1;exitDx=0;exitDy=0;exitPerimeter=0;entryX=0.75;entryY=0;entryDx=0;entryDy=0;entryPerimeter=0;dashed=1;" parent="1" source="7iBCfK0Fx1MPOXK75AvC-5" target="7iBCfK0Fx1MPOXK75AvC-7" edge="1">
            <mxGeometry width="240" relative="1" as="geometry">
              <mxPoint x="1790" y="310" as="sourcePoint" />
              <mxPoint x="2030" y="310" as="targetPoint" />
            </mxGeometry>
          </mxCell>
        </object>
        <mxCell id="7iBCfK0Fx1MPOXK75AvC-36" value="wysyła wywołanie&lt;div&gt;&amp;nbsp;API do&lt;/div&gt;" style="edgeLabel;html=1;align=center;verticalAlign=middle;resizable=0;points=[];" parent="7iBCfK0Fx1MPOXK75AvC-21" vertex="1" connectable="0">
          <mxGeometry x="-0.2248" y="-3" relative="1" as="geometry">
            <mxPoint as="offset" />
          </mxGeometry>
        </mxCell>
        <object placeholders="1" c4Type="Relationship" id="7iBCfK0Fx1MPOXK75AvC-23">
          <mxCell style="endArrow=blockThin;html=1;fontSize=10;fontColor=#404040;strokeWidth=1;endFill=1;strokeColor=#828282;elbow=vertical;metaEdit=1;endSize=14;startSize=14;jumpStyle=arc;jumpSize=16;rounded=0;exitX=0.628;exitY=1.014;exitDx=0;exitDy=0;exitPerimeter=0;entryX=0.5;entryY=0;entryDx=0;entryDy=0;entryPerimeter=0;dashed=1;" parent="1" source="7iBCfK0Fx1MPOXK75AvC-5" target="7iBCfK0Fx1MPOXK75AvC-19" edge="1">
            <mxGeometry width="240" relative="1" as="geometry">
              <mxPoint x="2100" y="300" as="sourcePoint" />
              <mxPoint x="2340" y="310" as="targetPoint" />
            </mxGeometry>
          </mxCell>
        </object>
        <mxCell id="7iBCfK0Fx1MPOXK75AvC-37" value="wysyła wywołanie&lt;div&gt;&amp;nbsp;API do&lt;/div&gt;" style="edgeLabel;html=1;align=center;verticalAlign=middle;resizable=0;points=[];" parent="7iBCfK0Fx1MPOXK75AvC-23" vertex="1" connectable="0">
          <mxGeometry x="-0.7947" y="-3" relative="1" as="geometry">
            <mxPoint x="1" as="offset" />
          </mxGeometry>
        </mxCell>
        <object placeholders="1" c4Type="Relationship" id="7iBCfK0Fx1MPOXK75AvC-24">
          <mxCell style="endArrow=blockThin;html=1;fontSize=10;fontColor=#404040;strokeWidth=1;endFill=1;strokeColor=#828282;elbow=vertical;metaEdit=1;endSize=14;startSize=14;jumpStyle=arc;jumpSize=16;rounded=0;exitX=1;exitY=0.5;exitDx=0;exitDy=0;exitPerimeter=0;entryX=0.25;entryY=0;entryDx=0;entryDy=0;entryPerimeter=0;dashed=1;" parent="1" source="7iBCfK0Fx1MPOXK75AvC-4" target="7iBCfK0Fx1MPOXK75AvC-19" edge="1">
            <mxGeometry width="240" relative="1" as="geometry">
              <mxPoint x="1720" y="240" as="sourcePoint" />
              <mxPoint x="1960" y="240" as="targetPoint" />
            </mxGeometry>
          </mxCell>
        </object>
        <mxCell id="7iBCfK0Fx1MPOXK75AvC-35" value="wysyła wywołanie&lt;div&gt;&amp;nbsp;API do&lt;/div&gt;" style="edgeLabel;html=1;align=center;verticalAlign=middle;resizable=0;points=[];" parent="7iBCfK0Fx1MPOXK75AvC-24" vertex="1" connectable="0">
          <mxGeometry x="-0.6065" y="1" relative="1" as="geometry">
            <mxPoint as="offset" />
          </mxGeometry>
        </mxCell>
        <object placeholders="1" c4Type="Relationship" id="7iBCfK0Fx1MPOXK75AvC-26">
          <mxCell style="endArrow=blockThin;html=1;fontSize=10;fontColor=#404040;strokeWidth=1;endFill=1;strokeColor=#828282;elbow=vertical;metaEdit=1;endSize=14;startSize=14;jumpStyle=arc;jumpSize=16;rounded=0;edgeStyle=orthogonalEdgeStyle;exitX=0.5;exitY=1;exitDx=0;exitDy=0;exitPerimeter=0;entryX=0.5;entryY=0;entryDx=0;entryDy=0;entryPerimeter=0;dashed=1;" parent="1" source="7iBCfK0Fx1MPOXK75AvC-7" target="7iBCfK0Fx1MPOXK75AvC-13" edge="1">
            <mxGeometry width="240" relative="1" as="geometry">
              <mxPoint x="1750" y="530" as="sourcePoint" />
              <mxPoint x="1990" y="530" as="targetPoint" />
            </mxGeometry>
          </mxCell>
        </object>
        <mxCell id="7iBCfK0Fx1MPOXK75AvC-38" value="Używa" style="edgeLabel;html=1;align=center;verticalAlign=middle;resizable=0;points=[];" parent="7iBCfK0Fx1MPOXK75AvC-26" vertex="1" connectable="0">
          <mxGeometry x="0.0593" y="2" relative="1" as="geometry">
            <mxPoint as="offset" />
          </mxGeometry>
        </mxCell>
        <object placeholders="1" c4Type="Relationship" id="7iBCfK0Fx1MPOXK75AvC-28">
          <mxCell style="endArrow=blockThin;html=1;fontSize=10;fontColor=#404040;strokeWidth=1;endFill=1;strokeColor=#828282;elbow=vertical;metaEdit=1;endSize=14;startSize=14;jumpStyle=arc;jumpSize=16;rounded=0;edgeStyle=orthogonalEdgeStyle;exitX=0.5;exitY=1;exitDx=0;exitDy=0;exitPerimeter=0;entryX=0.5;entryY=0;entryDx=0;entryDy=0;entryPerimeter=0;dashed=1;" parent="1" source="7iBCfK0Fx1MPOXK75AvC-13" target="7iBCfK0Fx1MPOXK75AvC-16" edge="1">
            <mxGeometry width="240" relative="1" as="geometry">
              <mxPoint x="1730" y="730" as="sourcePoint" />
              <mxPoint x="1970" y="730" as="targetPoint" />
            </mxGeometry>
          </mxCell>
        </object>
        <mxCell id="7iBCfK0Fx1MPOXK75AvC-40" value="Wysyła E-maile&lt;div&gt;&amp;nbsp;za pomocą&lt;/div&gt;" style="edgeLabel;html=1;align=center;verticalAlign=middle;resizable=0;points=[];" parent="7iBCfK0Fx1MPOXK75AvC-28" vertex="1" connectable="0">
          <mxGeometry x="-0.1445" y="1" relative="1" as="geometry">
            <mxPoint as="offset" />
          </mxGeometry>
        </mxCell>
        <object placeholders="1" c4Type="Relationship" id="7iBCfK0Fx1MPOXK75AvC-30">
          <mxCell style="endArrow=blockThin;html=1;fontSize=10;fontColor=#404040;strokeWidth=1;endFill=1;strokeColor=#828282;elbow=vertical;metaEdit=1;endSize=14;startSize=14;jumpStyle=arc;jumpSize=16;rounded=0;edgeStyle=orthogonalEdgeStyle;exitX=0.5;exitY=1;exitDx=0;exitDy=0;exitPerimeter=0;entryX=0.5;entryY=0;entryDx=0;entryDy=0;entryPerimeter=0;dashed=1;" parent="1" source="7iBCfK0Fx1MPOXK75AvC-19" target="7iBCfK0Fx1MPOXK75AvC-18" edge="1">
            <mxGeometry width="240" relative="1" as="geometry">
              <mxPoint x="2300" y="740" as="sourcePoint" />
              <mxPoint x="2540" y="740" as="targetPoint" />
            </mxGeometry>
          </mxCell>
        </object>
        <mxCell id="7iBCfK0Fx1MPOXK75AvC-41" value="wysyła wywołanie&lt;div&gt;&amp;nbsp;API do&lt;/div&gt;" style="edgeLabel;html=1;align=center;verticalAlign=middle;resizable=0;points=[];" parent="7iBCfK0Fx1MPOXK75AvC-30" vertex="1" connectable="0">
          <mxGeometry x="-0.3735" y="-1" relative="1" as="geometry">
            <mxPoint as="offset" />
          </mxGeometry>
        </mxCell>
        <mxCell id="7iBCfK0Fx1MPOXK75AvC-33" value="&lt;b&gt;&lt;font style=&quot;font-size: 21px;&quot;&gt;Aplikacja API&lt;/font&gt;&lt;/b&gt;" style="text;html=1;align=center;verticalAlign=middle;resizable=0;points=[];autosize=1;strokeColor=none;fillColor=none;" parent="1" vertex="1">
          <mxGeometry x="930" y="670" width="160" height="40" as="geometry" />
        </mxCell>
        <object placeholders="1" c4Name="System zarządzania ogłoszeniami" c4Type="Component" c4Technology="e.g. Spring Service" c4Description="Umożliwia wystawianie, przeglądanie, usuwanie, zarządzanie ogłoszeniami i szukanie ich, wysyłanie powiadomień o stanie aukcji czy wystawianie opinii" label="&lt;font style=&quot;font-size: 16px&quot;&gt;&lt;b&gt;%c4Name%&lt;/b&gt;&lt;/font&gt;&lt;div&gt;[%c4Type%: %c4Technology%]&lt;/div&gt;&lt;br&gt;&lt;div&gt;&lt;font style=&quot;font-size: 11px&quot;&gt;%c4Description%&lt;/font&gt;&lt;/div&gt;" id="7iBCfK0Fx1MPOXK75AvC-42">
          <mxCell style="rounded=1;whiteSpace=wrap;html=1;labelBackgroundColor=none;fillColor=#63BEF2;fontColor=#ffffff;align=center;arcSize=6;strokeColor=#2086C9;metaEdit=1;resizable=0;points=[[0.25,0,0],[0.5,0,0],[0.75,0,0],[1,0.25,0],[1,0.5,0],[1,0.75,0],[0.75,1,0],[0.5,1,0],[0.25,1,0],[0,0.75,0],[0,0.5,0],[0,0.25,0]];" parent="1" vertex="1">
            <mxGeometry x="1310" y="350" width="240" height="120" as="geometry" />
          </mxCell>
        </object>
        <object placeholders="1" c4Type="Relationship" id="7iBCfK0Fx1MPOXK75AvC-45">
          <mxCell style="endArrow=blockThin;html=1;fontSize=10;fontColor=#404040;strokeWidth=1;endFill=1;strokeColor=#828282;elbow=vertical;metaEdit=1;endSize=14;startSize=14;jumpStyle=arc;jumpSize=16;rounded=0;exitX=0.216;exitY=0.993;exitDx=0;exitDy=0;exitPerimeter=0;entryX=0.5;entryY=0;entryDx=0;entryDy=0;entryPerimeter=0;dashed=1;" parent="1" source="7iBCfK0Fx1MPOXK75AvC-4" target="7iBCfK0Fx1MPOXK75AvC-42" edge="1">
            <mxGeometry width="240" relative="1" as="geometry">
              <mxPoint x="1389.6999999999998" y="321.0799999999999" as="sourcePoint" />
              <mxPoint x="1610" y="320" as="targetPoint" />
            </mxGeometry>
          </mxCell>
        </object>
        <mxCell id="7iBCfK0Fx1MPOXK75AvC-50" value="wysyła wywołanie&lt;div&gt;&amp;nbsp;API do&lt;/div&gt;" style="edgeLabel;html=1;align=center;verticalAlign=middle;resizable=0;points=[];" parent="7iBCfK0Fx1MPOXK75AvC-45" vertex="1" connectable="0">
          <mxGeometry x="0.0853" y="3" relative="1" as="geometry">
            <mxPoint as="offset" />
          </mxGeometry>
        </mxCell>
        <object placeholders="1" c4Type="Relationship" id="7iBCfK0Fx1MPOXK75AvC-46">
          <mxCell style="endArrow=blockThin;html=1;fontSize=10;fontColor=#404040;strokeWidth=1;endFill=1;strokeColor=#828282;elbow=vertical;metaEdit=1;endSize=14;startSize=14;jumpStyle=arc;jumpSize=16;rounded=0;exitX=-0.009;exitY=0.674;exitDx=0;exitDy=0;exitPerimeter=0;entryX=1.005;entryY=0.195;entryDx=0;entryDy=0;entryPerimeter=0;dashed=1;" parent="1" source="7iBCfK0Fx1MPOXK75AvC-5" target="7iBCfK0Fx1MPOXK75AvC-42" edge="1">
            <mxGeometry width="240" relative="1" as="geometry">
              <mxPoint x="1720" y="160" as="sourcePoint" />
              <mxPoint x="1960" y="160" as="targetPoint" />
            </mxGeometry>
          </mxCell>
        </object>
        <mxCell id="7iBCfK0Fx1MPOXK75AvC-47" value="wysyła wywołanie&lt;div&gt;&amp;nbsp;API do&lt;/div&gt;" style="edgeLabel;html=1;align=center;verticalAlign=middle;resizable=0;points=[];" parent="7iBCfK0Fx1MPOXK75AvC-46" vertex="1" connectable="0">
          <mxGeometry x="-0.7869" y="-2" relative="1" as="geometry">
            <mxPoint x="-11" as="offset" />
          </mxGeometry>
        </mxCell>
        <object placeholders="1" c4Name="System komunikacji" c4Type="Component" c4Technology="e.g. Spring Service" c4Description="Umożliwia komunikacje między użytkownikami systemu aukcyjnego dotyczące aukcji oraz między użytkownikami a administracją w razie problemów" label="&lt;font style=&quot;font-size: 16px&quot;&gt;&lt;b&gt;%c4Name%&lt;/b&gt;&lt;/font&gt;&lt;div&gt;[%c4Type%: %c4Technology%]&lt;/div&gt;&lt;br&gt;&lt;div&gt;&lt;font style=&quot;font-size: 11px&quot;&gt;%c4Description%&lt;/font&gt;&lt;/div&gt;" id="7iBCfK0Fx1MPOXK75AvC-51">
          <mxCell style="rounded=1;whiteSpace=wrap;html=1;labelBackgroundColor=none;fillColor=#63BEF2;fontColor=#ffffff;align=center;arcSize=6;strokeColor=#2086C9;metaEdit=1;resizable=0;points=[[0.25,0,0],[0.5,0,0],[0.75,0,0],[1,0.25,0],[1,0.5,0],[1,0.75,0],[0.75,1,0],[0.5,1,0],[0.25,1,0],[0,0.75,0],[0,0.5,0],[0,0.25,0]];" parent="1" vertex="1">
            <mxGeometry x="1001" y="530" width="240" height="120" as="geometry" />
          </mxCell>
        </object>
        <object placeholders="1" c4Type="Relationship" id="7iBCfK0Fx1MPOXK75AvC-52">
          <mxCell style="endArrow=blockThin;html=1;fontSize=10;fontColor=#404040;strokeWidth=1;endFill=1;strokeColor=#828282;elbow=vertical;metaEdit=1;endSize=14;startSize=14;jumpStyle=arc;jumpSize=16;rounded=0;exitX=0.5;exitY=1;exitDx=0;exitDy=0;exitPerimeter=0;entryX=0.454;entryY=0;entryDx=0;entryDy=0;entryPerimeter=0;dashed=1;" parent="1" source="7iBCfK0Fx1MPOXK75AvC-42" target="7iBCfK0Fx1MPOXK75AvC-17" edge="1">
            <mxGeometry width="240" relative="1" as="geometry">
              <mxPoint x="1380" y="520" as="sourcePoint" />
              <mxPoint x="1620" y="520" as="targetPoint" />
            </mxGeometry>
          </mxCell>
        </object>
        <mxCell id="7iBCfK0Fx1MPOXK75AvC-58" value="Czyta z i zapisuje do" style="edgeLabel;html=1;align=center;verticalAlign=middle;resizable=0;points=[];" parent="7iBCfK0Fx1MPOXK75AvC-52" vertex="1" connectable="0">
          <mxGeometry x="-0.2497" relative="1" as="geometry">
            <mxPoint y="-1" as="offset" />
          </mxGeometry>
        </mxCell>
        <object placeholders="1" c4Type="Relationship" id="7iBCfK0Fx1MPOXK75AvC-57">
          <mxCell style="endArrow=blockThin;html=1;fontSize=10;fontColor=#404040;strokeWidth=1;endFill=1;strokeColor=#828282;elbow=vertical;metaEdit=1;endSize=14;startSize=14;jumpStyle=arc;jumpSize=16;rounded=0;exitX=1;exitY=0.5;exitDx=0;exitDy=0;exitPerimeter=0;entryX=0;entryY=0.5;entryDx=0;entryDy=0;entryPerimeter=0;dashed=1;" parent="1" source="7iBCfK0Fx1MPOXK75AvC-51" target="7iBCfK0Fx1MPOXK75AvC-13" edge="1">
            <mxGeometry width="240" relative="1" as="geometry">
              <mxPoint x="1010" y="580" as="sourcePoint" />
              <mxPoint x="1250" y="580" as="targetPoint" />
            </mxGeometry>
          </mxCell>
        </object>
        <mxCell id="7iBCfK0Fx1MPOXK75AvC-59" value="Czyta z i zapisuje do" style="edgeLabel;html=1;align=center;verticalAlign=middle;resizable=0;points=[];" parent="7iBCfK0Fx1MPOXK75AvC-57" vertex="1" connectable="0">
          <mxGeometry x="-0.2646" y="3" relative="1" as="geometry">
            <mxPoint x="1" as="offset" />
          </mxGeometry>
        </mxCell>
        <object placeholders="1" c4Type="Relationship" id="7iBCfK0Fx1MPOXK75AvC-60">
          <mxCell style="endArrow=blockThin;html=1;fontSize=10;fontColor=#404040;strokeWidth=1;endFill=1;strokeColor=#828282;elbow=vertical;metaEdit=1;endSize=14;startSize=14;jumpStyle=arc;jumpSize=16;rounded=0;exitX=0;exitY=0.5;exitDx=0;exitDy=0;exitPerimeter=0;entryX=0.542;entryY=0;entryDx=0;entryDy=0;entryPerimeter=0;dashed=1;" parent="1" source="7iBCfK0Fx1MPOXK75AvC-4" target="7iBCfK0Fx1MPOXK75AvC-51" edge="1">
            <mxGeometry width="240" relative="1" as="geometry">
              <mxPoint x="1010" y="200" as="sourcePoint" />
              <mxPoint x="1250" y="200" as="targetPoint" />
            </mxGeometry>
          </mxCell>
        </object>
        <mxCell id="7iBCfK0Fx1MPOXK75AvC-66" value="wysyła wywołanie&lt;div&gt;&amp;nbsp;API do&lt;/div&gt;" style="edgeLabel;html=1;align=center;verticalAlign=middle;resizable=0;points=[];" parent="7iBCfK0Fx1MPOXK75AvC-60" vertex="1" connectable="0">
          <mxGeometry x="-0.1507" y="-2" relative="1" as="geometry">
            <mxPoint as="offset" />
          </mxGeometry>
        </mxCell>
        <object placeholders="1" c4Type="Relationship" id="7iBCfK0Fx1MPOXK75AvC-61">
          <mxCell style="endArrow=blockThin;html=1;fontSize=10;fontColor=#404040;strokeWidth=1;endFill=1;strokeColor=#828282;elbow=vertical;metaEdit=1;endSize=14;startSize=14;jumpStyle=arc;jumpSize=16;rounded=0;edgeStyle=orthogonalEdgeStyle;exitX=0;exitY=0.5;exitDx=0;exitDy=0;exitPerimeter=0;entryX=0.318;entryY=0.012;entryDx=0;entryDy=0;entryPerimeter=0;dashed=1;" parent="1" source="7iBCfK0Fx1MPOXK75AvC-5" target="7iBCfK0Fx1MPOXK75AvC-51" edge="1">
            <mxGeometry width="240" relative="1" as="geometry">
              <mxPoint x="1720" y="120" as="sourcePoint" />
              <mxPoint x="1960" y="120" as="targetPoint" />
              <Array as="points">
                <mxPoint x="1950" y="158" />
                <mxPoint x="1950" y="50" />
                <mxPoint x="1066" y="50" />
              </Array>
            </mxGeometry>
          </mxCell>
        </object>
        <mxCell id="7iBCfK0Fx1MPOXK75AvC-64" value="wysyła wywołanie&lt;div&gt;&amp;nbsp;API do&lt;/div&gt;" style="edgeLabel;html=1;align=center;verticalAlign=middle;resizable=0;points=[];" parent="7iBCfK0Fx1MPOXK75AvC-61" vertex="1" connectable="0">
          <mxGeometry x="-0.1031" y="-2" relative="1" as="geometry">
            <mxPoint as="offset" />
          </mxGeometry>
        </mxCell>
        <object placeholders="1" c4Type="Relationship" id="7iBCfK0Fx1MPOXK75AvC-67">
          <mxCell style="endArrow=blockThin;html=1;fontSize=10;fontColor=#404040;strokeWidth=1;endFill=1;strokeColor=#828282;elbow=vertical;metaEdit=1;endSize=14;startSize=14;jumpStyle=arc;jumpSize=16;rounded=0;exitX=0;exitY=0.5;exitDx=0;exitDy=0;exitPerimeter=0;entryX=1;entryY=0.25;entryDx=0;entryDy=0;entryPerimeter=0;dashed=1;" parent="1" source="7iBCfK0Fx1MPOXK75AvC-7" target="7iBCfK0Fx1MPOXK75AvC-51" edge="1">
            <mxGeometry width="240" relative="1" as="geometry">
              <mxPoint x="1520" y="530" as="sourcePoint" />
              <mxPoint x="1760" y="530" as="targetPoint" />
            </mxGeometry>
          </mxCell>
        </object>
        <mxCell id="cxPYY08UiBncWLZFcEKH-3" value="korzysta z" style="edgeLabel;html=1;align=center;verticalAlign=middle;resizable=0;points=[];" parent="7iBCfK0Fx1MPOXK75AvC-67" vertex="1" connectable="0">
          <mxGeometry x="-0.0565" y="3" relative="1" as="geometry">
            <mxPoint as="offset" />
          </mxGeometry>
        </mxCell>
        <object placeholders="1" c4Type="Relationship" id="7iBCfK0Fx1MPOXK75AvC-68">
          <mxCell style="endArrow=blockThin;html=1;fontSize=10;fontColor=#404040;strokeWidth=1;endFill=1;strokeColor=#828282;elbow=vertical;metaEdit=1;endSize=14;startSize=14;jumpStyle=arc;jumpSize=16;rounded=0;edgeStyle=orthogonalEdgeStyle;exitX=0;exitY=0.5;exitDx=0;exitDy=0;exitPerimeter=0;entryX=1;entryY=0.5;entryDx=0;entryDy=0;entryPerimeter=0;dashed=1;" parent="1" source="7iBCfK0Fx1MPOXK75AvC-7" target="7iBCfK0Fx1MPOXK75AvC-42" edge="1">
            <mxGeometry width="240" relative="1" as="geometry">
              <mxPoint x="1480" y="530" as="sourcePoint" />
              <mxPoint x="1720" y="530" as="targetPoint" />
            </mxGeometry>
          </mxCell>
        </object>
        <mxCell id="cxPYY08UiBncWLZFcEKH-1" value="korzysta z&amp;nbsp;" style="edgeLabel;html=1;align=center;verticalAlign=middle;resizable=0;points=[];" parent="7iBCfK0Fx1MPOXK75AvC-68" vertex="1" connectable="0">
          <mxGeometry x="-0.1964" y="-2" relative="1" as="geometry">
            <mxPoint as="offset" />
          </mxGeometry>
        </mxCell>
        <object placeholders="1" c4Type="Relationship" id="7iBCfK0Fx1MPOXK75AvC-70">
          <mxCell style="endArrow=blockThin;html=1;fontSize=10;fontColor=#404040;strokeWidth=1;endFill=1;strokeColor=#828282;elbow=vertical;metaEdit=1;endSize=14;startSize=14;jumpStyle=arc;jumpSize=16;rounded=0;exitX=1;exitY=0.5;exitDx=0;exitDy=0;exitPerimeter=0;entryX=0;entryY=0.25;entryDx=0;entryDy=0;entryPerimeter=0;dashed=1;" parent="1" source="7iBCfK0Fx1MPOXK75AvC-7" target="7iBCfK0Fx1MPOXK75AvC-19" edge="1">
            <mxGeometry width="240" relative="1" as="geometry">
              <mxPoint x="2060" y="520" as="sourcePoint" />
              <mxPoint x="2300" y="520" as="targetPoint" />
            </mxGeometry>
          </mxCell>
        </object>
        <mxCell id="cxPYY08UiBncWLZFcEKH-34" value="ogloszenie.Komendy" style="swimlane;fontStyle=1;align=center;verticalAlign=middle;childLayout=stackLayout;horizontal=1;startSize=29;horizontalStack=0;resizeParent=1;resizeParentMax=0;resizeLast=0;collapsible=0;marginBottom=0;html=1;whiteSpace=wrap;" parent="1" vertex="1">
          <mxGeometry x="2950" y="1310" width="140" height="54" as="geometry" />
        </mxCell>
        <mxCell id="cxPYY08UiBncWLZFcEKH-35" value="[Component]" style="text;html=1;strokeColor=none;fillColor=none;align=center;verticalAlign=middle;spacingLeft=4;spacingRight=4;overflow=hidden;rotatable=0;points=[[0,0.5],[1,0.5]];portConstraint=eastwest;whiteSpace=wrap;" parent="cxPYY08UiBncWLZFcEKH-34" vertex="1">
          <mxGeometry y="29" width="140" height="25" as="geometry" />
        </mxCell>
        <mxCell id="cxPYY08UiBncWLZFcEKH-37" value="ogloszenia.Queries" style="swimlane;fontStyle=1;align=center;verticalAlign=middle;childLayout=stackLayout;horizontal=1;startSize=29;horizontalStack=0;resizeParent=1;resizeParentMax=0;resizeLast=0;collapsible=0;marginBottom=0;html=1;whiteSpace=wrap;" parent="1" vertex="1">
          <mxGeometry x="2240" y="1329" width="140" height="54" as="geometry" />
        </mxCell>
        <mxCell id="cxPYY08UiBncWLZFcEKH-38" value="[Component]" style="text;html=1;strokeColor=none;fillColor=none;align=center;verticalAlign=middle;spacingLeft=4;spacingRight=4;overflow=hidden;rotatable=0;points=[[0,0.5],[1,0.5]];portConstraint=eastwest;whiteSpace=wrap;" parent="cxPYY08UiBncWLZFcEKH-37" vertex="1">
          <mxGeometry y="29" width="140" height="25" as="geometry" />
        </mxCell>
        <mxCell id="cxPYY08UiBncWLZFcEKH-39" value="aplikacja.Ogloszenie" style="swimlane;fontStyle=1;align=center;verticalAlign=middle;childLayout=stackLayout;horizontal=1;startSize=29;horizontalStack=0;resizeParent=1;resizeParentMax=0;resizeLast=0;collapsible=0;marginBottom=0;html=1;whiteSpace=wrap;" parent="1" vertex="1">
          <mxGeometry x="2680" y="1115" width="140" height="54" as="geometry" />
        </mxCell>
        <mxCell id="cxPYY08UiBncWLZFcEKH-40" value="&lt;div&gt;&lt;div&gt;&lt;br&gt;&lt;/div&gt;&lt;/div&gt;" style="text;html=1;strokeColor=none;fillColor=none;align=center;verticalAlign=middle;spacingLeft=4;spacingRight=4;overflow=hidden;rotatable=0;points=[[0,0.5],[1,0.5]];portConstraint=eastwest;whiteSpace=wrap;" parent="cxPYY08UiBncWLZFcEKH-39" vertex="1">
          <mxGeometry y="29" width="140" height="25" as="geometry" />
        </mxCell>
        <mxCell id="cxPYY08UiBncWLZFcEKH-41" value="ogloszenie.DodajOgloszenie" style="swimlane;fontStyle=1;align=center;verticalAlign=middle;childLayout=stackLayout;horizontal=1;startSize=29;horizontalStack=0;resizeParent=1;resizeParentMax=0;resizeLast=0;collapsible=0;marginBottom=0;html=1;whiteSpace=wrap;" parent="1" vertex="1">
          <mxGeometry x="2740" y="1540" width="180" height="54" as="geometry" />
        </mxCell>
        <mxCell id="cxPYY08UiBncWLZFcEKH-42" value="[Component]" style="text;html=1;strokeColor=none;fillColor=none;align=center;verticalAlign=middle;spacingLeft=4;spacingRight=4;overflow=hidden;rotatable=0;points=[[0,0.5],[1,0.5]];portConstraint=eastwest;whiteSpace=wrap;" parent="cxPYY08UiBncWLZFcEKH-41" vertex="1">
          <mxGeometry y="29" width="180" height="25" as="geometry" />
        </mxCell>
        <mxCell id="cxPYY08UiBncWLZFcEKH-43" value="ogloszenie.UsunOgoloszenie" style="swimlane;fontStyle=1;align=center;verticalAlign=middle;childLayout=stackLayout;horizontal=1;startSize=29;horizontalStack=0;resizeParent=1;resizeParentMax=0;resizeLast=0;collapsible=0;marginBottom=0;html=1;whiteSpace=wrap;" parent="1" vertex="1">
          <mxGeometry x="2940" y="1540" width="180" height="54" as="geometry" />
        </mxCell>
        <mxCell id="cxPYY08UiBncWLZFcEKH-44" value="[Component]" style="text;html=1;strokeColor=none;fillColor=none;align=center;verticalAlign=middle;spacingLeft=4;spacingRight=4;overflow=hidden;rotatable=0;points=[[0,0.5],[1,0.5]];portConstraint=eastwest;whiteSpace=wrap;" parent="cxPYY08UiBncWLZFcEKH-43" vertex="1">
          <mxGeometry y="29" width="180" height="25" as="geometry" />
        </mxCell>
        <mxCell id="cxPYY08UiBncWLZFcEKH-45" value="query.SzukajOgloszenia" style="swimlane;fontStyle=1;align=center;verticalAlign=middle;childLayout=stackLayout;horizontal=1;startSize=29;horizontalStack=0;resizeParent=1;resizeParentMax=0;resizeLast=0;collapsible=0;marginBottom=0;html=1;whiteSpace=wrap;" parent="1" vertex="1">
          <mxGeometry x="2210" y="1540" width="180" height="54" as="geometry" />
        </mxCell>
        <mxCell id="cxPYY08UiBncWLZFcEKH-46" value="[Component]" style="text;html=1;strokeColor=none;fillColor=none;align=center;verticalAlign=middle;spacingLeft=4;spacingRight=4;overflow=hidden;rotatable=0;points=[[0,0.5],[1,0.5]];portConstraint=eastwest;whiteSpace=wrap;" parent="cxPYY08UiBncWLZFcEKH-45" vertex="1">
          <mxGeometry y="29" width="180" height="25" as="geometry" />
        </mxCell>
        <mxCell id="cxPYY08UiBncWLZFcEKH-47" value="ogloszenie.Edytuj" style="swimlane;fontStyle=1;align=center;verticalAlign=middle;childLayout=stackLayout;horizontal=1;startSize=29;horizontalStack=0;resizeParent=1;resizeParentMax=0;resizeLast=0;collapsible=0;marginBottom=0;html=1;whiteSpace=wrap;" parent="1" vertex="1">
          <mxGeometry x="3140" y="1540" width="180" height="54" as="geometry" />
        </mxCell>
        <mxCell id="cxPYY08UiBncWLZFcEKH-48" value="[Component]" style="text;html=1;strokeColor=none;fillColor=none;align=center;verticalAlign=middle;spacingLeft=4;spacingRight=4;overflow=hidden;rotatable=0;points=[[0,0.5],[1,0.5]];portConstraint=eastwest;whiteSpace=wrap;" parent="cxPYY08UiBncWLZFcEKH-47" vertex="1">
          <mxGeometry y="29" width="180" height="25" as="geometry" />
        </mxCell>
        <mxCell id="cxPYY08UiBncWLZFcEKH-64" value="app.Aplikacja" style="swimlane;fontStyle=1;align=center;verticalAlign=middle;childLayout=stackLayout;horizontal=1;startSize=29;horizontalStack=0;resizeParent=1;resizeParentMax=0;resizeLast=0;collapsible=0;marginBottom=0;html=1;whiteSpace=wrap;" parent="1" vertex="1">
          <mxGeometry x="2680" y="1010" width="140" height="54" as="geometry" />
        </mxCell>
        <mxCell id="cxPYY08UiBncWLZFcEKH-65" value="[Component]" style="text;html=1;strokeColor=none;fillColor=none;align=center;verticalAlign=middle;spacingLeft=4;spacingRight=4;overflow=hidden;rotatable=0;points=[[0,0.5],[1,0.5]];portConstraint=eastwest;whiteSpace=wrap;" parent="cxPYY08UiBncWLZFcEKH-64" vertex="1">
          <mxGeometry y="29" width="140" height="25" as="geometry" />
        </mxCell>
        <object placeholders="1" c4Type="Relationship" id="cxPYY08UiBncWLZFcEKH-66">
          <mxCell style="endArrow=blockThin;html=1;fontSize=10;fontColor=#404040;strokeWidth=1;endFill=1;strokeColor=#828282;elbow=vertical;metaEdit=1;endSize=14;startSize=14;jumpStyle=arc;jumpSize=16;rounded=0;edgeStyle=orthogonalEdgeStyle;" parent="1" edge="1">
            <mxGeometry width="240" relative="1" as="geometry">
              <mxPoint x="2750" y="1070" as="sourcePoint" />
              <mxPoint x="2750" y="1110" as="targetPoint" />
            </mxGeometry>
          </mxCell>
        </object>
        <object placeholders="1" c4Type="Relationship" id="cxPYY08UiBncWLZFcEKH-69">
          <mxCell style="endArrow=blockThin;html=1;fontSize=10;fontColor=#404040;strokeWidth=1;endFill=1;strokeColor=#828282;elbow=vertical;metaEdit=1;jumpStyle=arc;jumpSize=16;rounded=0;entryX=0.5;entryY=0;entryDx=0;entryDy=0;" parent="1" target="cxPYY08UiBncWLZFcEKH-34" edge="1">
            <mxGeometry width="240" relative="1" as="geometry">
              <mxPoint x="2749.68" y="1170" as="sourcePoint" />
              <mxPoint x="2749.68" y="1210" as="targetPoint" />
            </mxGeometry>
          </mxCell>
        </object>
        <object placeholders="1" c4Type="Relationship" id="cxPYY08UiBncWLZFcEKH-72">
          <mxCell style="endArrow=blockThin;html=1;fontSize=10;fontColor=#404040;strokeWidth=1;endFill=1;strokeColor=#828282;elbow=vertical;metaEdit=1;endSize=14;startSize=14;jumpStyle=arc;jumpSize=16;rounded=0;" parent="1" target="cxPYY08UiBncWLZFcEKH-37" edge="1">
            <mxGeometry width="240" relative="1" as="geometry">
              <mxPoint x="2740" y="1169" as="sourcePoint" />
              <mxPoint x="2740" y="1209" as="targetPoint" />
            </mxGeometry>
          </mxCell>
        </object>
        <object placeholders="1" c4Type="Relationship" id="cxPYY08UiBncWLZFcEKH-75">
          <mxCell style="endArrow=blockThin;html=1;fontSize=10;fontColor=#404040;strokeWidth=1;endFill=1;strokeColor=#828282;elbow=vertical;metaEdit=1;endSize=14;startSize=14;jumpStyle=arc;jumpSize=16;rounded=0;edgeStyle=orthogonalEdgeStyle;entryX=0.556;entryY=0;entryDx=0;entryDy=0;entryPerimeter=0;" parent="1" target="cxPYY08UiBncWLZFcEKH-45" edge="1">
            <mxGeometry width="240" relative="1" as="geometry">
              <mxPoint x="2309.73" y="1390" as="sourcePoint" />
              <mxPoint x="2309.73" y="1430" as="targetPoint" />
            </mxGeometry>
          </mxCell>
        </object>
        <object placeholders="1" c4Type="Relationship" id="cxPYY08UiBncWLZFcEKH-76">
          <mxCell style="endArrow=blockThin;html=1;fontSize=10;fontColor=#404040;strokeWidth=1;endFill=1;strokeColor=#828282;elbow=vertical;metaEdit=1;endSize=14;startSize=14;jumpStyle=arc;jumpSize=16;rounded=0;edgeStyle=orthogonalEdgeStyle;entryX=0.444;entryY=0;entryDx=0;entryDy=0;entryPerimeter=0;" parent="1" target="cxPYY08UiBncWLZFcEKH-43" edge="1">
            <mxGeometry width="240" relative="1" as="geometry">
              <mxPoint x="3019.61" y="1370" as="sourcePoint" />
              <mxPoint x="3019.88" y="1520" as="targetPoint" />
            </mxGeometry>
          </mxCell>
        </object>
        <object placeholders="1" c4Type="Relationship" id="cxPYY08UiBncWLZFcEKH-77">
          <mxCell style="endArrow=blockThin;html=1;fontSize=10;fontColor=#404040;strokeWidth=1;endFill=1;strokeColor=#828282;elbow=vertical;metaEdit=1;endSize=14;startSize=14;jumpStyle=arc;jumpSize=16;rounded=0;entryX=0.444;entryY=0;entryDx=0;entryDy=0;entryPerimeter=0;exitX=0.448;exitY=1.063;exitDx=0;exitDy=0;exitPerimeter=0;" parent="1" source="cxPYY08UiBncWLZFcEKH-35" edge="1">
            <mxGeometry width="240" relative="1" as="geometry">
              <mxPoint x="2820" y="1370" as="sourcePoint" />
              <mxPoint x="2820.39" y="1540" as="targetPoint" />
            </mxGeometry>
          </mxCell>
        </object>
        <object placeholders="1" c4Type="Relationship" id="cxPYY08UiBncWLZFcEKH-79">
          <mxCell style="endArrow=blockThin;html=1;fontSize=10;fontColor=#404040;strokeWidth=1;endFill=1;strokeColor=#828282;elbow=vertical;metaEdit=1;endSize=14;startSize=14;jumpStyle=arc;jumpSize=16;rounded=0;entryX=0.444;entryY=0;entryDx=0;entryDy=0;entryPerimeter=0;exitX=0.483;exitY=1.128;exitDx=0;exitDy=0;exitPerimeter=0;" parent="1" source="cxPYY08UiBncWLZFcEKH-35" edge="1">
            <mxGeometry width="240" relative="1" as="geometry">
              <mxPoint x="3020" y="1370" as="sourcePoint" />
              <mxPoint x="3240.39" y="1540" as="targetPoint" />
            </mxGeometry>
          </mxCell>
        </object>
        <mxCell id="cxPYY08UiBncWLZFcEKH-90" value="Ogłoszenie&lt;div&gt;&lt;br&gt;&lt;/div&gt;" style="swimlane;fontStyle=0;align=center;verticalAlign=top;childLayout=stackLayout;horizontal=1;startSize=55;horizontalStack=0;resizeParent=1;resizeParentMax=0;resizeLast=0;collapsible=0;marginBottom=0;html=1;whiteSpace=wrap;" parent="1" vertex="1">
          <mxGeometry x="2780" y="1660" width="160" height="380" as="geometry" />
        </mxCell>
        <mxCell id="cxPYY08UiBncWLZFcEKH-91" value="atrybuty" style="text;html=1;strokeColor=none;fillColor=none;align=center;verticalAlign=middle;spacingLeft=4;spacingRight=4;overflow=hidden;rotatable=0;points=[[0,0.5],[1,0.5]];portConstraint=eastwest;whiteSpace=wrap;" parent="cxPYY08UiBncWLZFcEKH-90" vertex="1">
          <mxGeometry y="55" width="160" height="20" as="geometry" />
        </mxCell>
        <mxCell id="cxPYY08UiBncWLZFcEKH-92" value="string nazwa;&lt;div&gt;date dataWaznosci;&lt;/div&gt;&lt;div&gt;string Opis;&lt;/div&gt;" style="text;html=1;strokeColor=none;fillColor=none;align=left;verticalAlign=middle;spacingLeft=4;spacingRight=4;overflow=hidden;rotatable=0;points=[[0,0.5],[1,0.5]];portConstraint=eastwest;whiteSpace=wrap;" parent="cxPYY08UiBncWLZFcEKH-90" vertex="1">
          <mxGeometry y="75" width="160" height="55" as="geometry" />
        </mxCell>
        <mxCell id="cxPYY08UiBncWLZFcEKH-93" value="Samochod samochod;&lt;div&gt;Promocja promocja;&lt;/div&gt;&lt;div&gt;Uzytkownik uzytkownik;&lt;/div&gt;" style="text;html=1;strokeColor=none;fillColor=none;align=left;verticalAlign=middle;spacingLeft=4;spacingRight=4;overflow=hidden;rotatable=0;points=[[0,0.5],[1,0.5]];portConstraint=eastwest;fontColor=#808080;whiteSpace=wrap;" parent="cxPYY08UiBncWLZFcEKH-90" vertex="1">
          <mxGeometry y="130" width="160" height="70" as="geometry" />
        </mxCell>
        <mxCell id="cxPYY08UiBncWLZFcEKH-94" value="..." style="text;html=1;strokeColor=none;fillColor=none;align=left;verticalAlign=middle;spacingLeft=4;spacingRight=4;overflow=hidden;rotatable=0;points=[[0,0.5],[1,0.5]];portConstraint=eastwest;whiteSpace=wrap;" parent="cxPYY08UiBncWLZFcEKH-90" vertex="1">
          <mxGeometry y="200" width="160" height="5" as="geometry" />
        </mxCell>
        <mxCell id="cxPYY08UiBncWLZFcEKH-95" value="" style="line;strokeWidth=1;fillColor=none;align=left;verticalAlign=middle;spacingTop=-1;spacingLeft=3;spacingRight=3;rotatable=0;labelPosition=right;points=[];portConstraint=eastwest;" parent="cxPYY08UiBncWLZFcEKH-90" vertex="1">
          <mxGeometry y="205" width="160" height="8" as="geometry" />
        </mxCell>
        <mxCell id="cxPYY08UiBncWLZFcEKH-96" value="metody" style="text;html=1;strokeColor=none;fillColor=none;align=center;verticalAlign=middle;spacingLeft=4;spacingRight=4;overflow=hidden;rotatable=0;points=[[0,0.5],[1,0.5]];portConstraint=eastwest;whiteSpace=wrap;" parent="cxPYY08UiBncWLZFcEKH-90" vertex="1">
          <mxGeometry y="213" width="160" height="20" as="geometry" />
        </mxCell>
        <mxCell id="cxPYY08UiBncWLZFcEKH-97" value="&lt;div&gt;dodajOgloszenie(); void&lt;/div&gt;&lt;div&gt;usunOgloszenie(); void&lt;/div&gt;&lt;div&gt;edytujOgloszenie(); void&lt;/div&gt;&lt;div&gt;wyszukajOgloszenie(); void&lt;/div&gt;&lt;div&gt;&lt;br&gt;&lt;/div&gt;&lt;div&gt;&lt;div&gt;&lt;br&gt;&lt;/div&gt;&lt;/div&gt;" style="text;html=1;strokeColor=none;fillColor=none;align=left;verticalAlign=middle;spacingLeft=4;spacingRight=4;overflow=hidden;rotatable=0;points=[[0,0.5],[1,0.5]];portConstraint=eastwest;whiteSpace=wrap;" parent="cxPYY08UiBncWLZFcEKH-90" vertex="1">
          <mxGeometry y="233" width="160" height="147" as="geometry" />
        </mxCell>
        <mxCell id="cxPYY08UiBncWLZFcEKH-98" value="Samochod" style="swimlane;fontStyle=0;align=center;verticalAlign=top;childLayout=stackLayout;horizontal=1;startSize=55;horizontalStack=0;resizeParent=1;resizeParentMax=0;resizeLast=0;collapsible=0;marginBottom=0;html=1;whiteSpace=wrap;" parent="1" vertex="1">
          <mxGeometry x="2481" y="1960" width="150" height="268" as="geometry" />
        </mxCell>
        <mxCell id="cxPYY08UiBncWLZFcEKH-99" value="atrybuty" style="text;html=1;strokeColor=none;fillColor=none;align=center;verticalAlign=middle;spacingLeft=4;spacingRight=4;overflow=hidden;rotatable=0;points=[[0,0.5],[1,0.5]];portConstraint=eastwest;whiteSpace=wrap;" parent="cxPYY08UiBncWLZFcEKH-98" vertex="1">
          <mxGeometry y="55" width="150" height="20" as="geometry" />
        </mxCell>
        <mxCell id="cxPYY08UiBncWLZFcEKH-100" value="Model model;&lt;br&gt;&lt;div&gt;string paliwo;&lt;/div&gt;&lt;div&gt;string kolor;&lt;/div&gt;&lt;div&gt;string napęd;&lt;/div&gt;&lt;div&gt;float przebieg;&lt;/div&gt;&lt;div&gt;boolean uszkodzony;&lt;/div&gt;&lt;div&gt;String VIN;&lt;/div&gt;&lt;div&gt;int rokProdukcji;&lt;/div&gt;&lt;div&gt;&lt;br&gt;&lt;/div&gt;" style="text;html=1;strokeColor=none;fillColor=none;align=left;verticalAlign=middle;spacingLeft=4;spacingRight=4;overflow=hidden;rotatable=0;points=[[0,0.5],[1,0.5]];portConstraint=eastwest;whiteSpace=wrap;" parent="cxPYY08UiBncWLZFcEKH-98" vertex="1">
          <mxGeometry y="75" width="150" height="145" as="geometry" />
        </mxCell>
        <mxCell id="cxPYY08UiBncWLZFcEKH-103" value="" style="line;strokeWidth=1;fillColor=none;align=left;verticalAlign=middle;spacingTop=-1;spacingLeft=3;spacingRight=3;rotatable=0;labelPosition=right;points=[];portConstraint=eastwest;" parent="cxPYY08UiBncWLZFcEKH-98" vertex="1">
          <mxGeometry y="220" width="150" height="8" as="geometry" />
        </mxCell>
        <mxCell id="cxPYY08UiBncWLZFcEKH-104" value="metody" style="text;html=1;strokeColor=none;fillColor=none;align=center;verticalAlign=middle;spacingLeft=4;spacingRight=4;overflow=hidden;rotatable=0;points=[[0,0.5],[1,0.5]];portConstraint=eastwest;whiteSpace=wrap;" parent="cxPYY08UiBncWLZFcEKH-98" vertex="1">
          <mxGeometry y="228" width="150" height="20" as="geometry" />
        </mxCell>
        <mxCell id="cxPYY08UiBncWLZFcEKH-105" value="gettery i settery" style="text;html=1;strokeColor=none;fillColor=none;align=left;verticalAlign=middle;spacingLeft=4;spacingRight=4;overflow=hidden;rotatable=0;points=[[0,0.5],[1,0.5]];portConstraint=eastwest;whiteSpace=wrap;" parent="cxPYY08UiBncWLZFcEKH-98" vertex="1">
          <mxGeometry y="248" width="150" height="20" as="geometry" />
        </mxCell>
        <mxCell id="cxPYY08UiBncWLZFcEKH-107" value="Promocja" style="swimlane;fontStyle=0;align=center;verticalAlign=top;childLayout=stackLayout;horizontal=1;startSize=55;horizontalStack=0;resizeParent=1;resizeParentMax=0;resizeLast=0;collapsible=0;marginBottom=0;html=1;whiteSpace=wrap;" parent="1" vertex="1">
          <mxGeometry x="3078" y="1990" width="230" height="238" as="geometry" />
        </mxCell>
        <mxCell id="cxPYY08UiBncWLZFcEKH-108" value="atrybuty" style="text;html=1;strokeColor=none;fillColor=none;align=center;verticalAlign=middle;spacingLeft=4;spacingRight=4;overflow=hidden;rotatable=0;points=[[0,0.5],[1,0.5]];portConstraint=eastwest;whiteSpace=wrap;" parent="cxPYY08UiBncWLZFcEKH-107" vertex="1">
          <mxGeometry y="55" width="230" height="20" as="geometry" />
        </mxCell>
        <mxCell id="cxPYY08UiBncWLZFcEKH-109" value="enum TypPromocji(&lt;div&gt;wyswietlNaGoreStrony,&lt;/div&gt;&lt;div&gt;WyswietlajNaStronieGlownej,&lt;/div&gt;&lt;div&gt;WyswietlajPodKazdymOgloszeniem&lt;/div&gt;&lt;div&gt;);&lt;/div&gt;&lt;div&gt;&lt;br&gt;&lt;/div&gt;&lt;div&gt;date czasTrwania;&lt;/div&gt;" style="text;html=1;strokeColor=none;fillColor=none;align=left;verticalAlign=middle;spacingLeft=4;spacingRight=4;overflow=hidden;rotatable=0;points=[[0,0.5],[1,0.5]];portConstraint=eastwest;whiteSpace=wrap;" parent="cxPYY08UiBncWLZFcEKH-107" vertex="1">
          <mxGeometry y="75" width="230" height="115" as="geometry" />
        </mxCell>
        <mxCell id="cxPYY08UiBncWLZFcEKH-112" value="" style="line;strokeWidth=1;fillColor=none;align=left;verticalAlign=middle;spacingTop=-1;spacingLeft=3;spacingRight=3;rotatable=0;labelPosition=right;points=[];portConstraint=eastwest;" parent="cxPYY08UiBncWLZFcEKH-107" vertex="1">
          <mxGeometry y="190" width="230" height="8" as="geometry" />
        </mxCell>
        <mxCell id="cxPYY08UiBncWLZFcEKH-113" value="metody" style="text;html=1;strokeColor=none;fillColor=none;align=center;verticalAlign=middle;spacingLeft=4;spacingRight=4;overflow=hidden;rotatable=0;points=[[0,0.5],[1,0.5]];portConstraint=eastwest;whiteSpace=wrap;" parent="cxPYY08UiBncWLZFcEKH-107" vertex="1">
          <mxGeometry y="198" width="230" height="20" as="geometry" />
        </mxCell>
        <mxCell id="cxPYY08UiBncWLZFcEKH-114" value="zrealizujPromocje(); void" style="text;html=1;strokeColor=none;fillColor=none;align=left;verticalAlign=middle;spacingLeft=4;spacingRight=4;overflow=hidden;rotatable=0;points=[[0,0.5],[1,0.5]];portConstraint=eastwest;whiteSpace=wrap;" parent="cxPYY08UiBncWLZFcEKH-107" vertex="1">
          <mxGeometry y="218" width="230" height="20" as="geometry" />
        </mxCell>
        <mxCell id="cxPYY08UiBncWLZFcEKH-115" value="Użytkownik" style="swimlane;fontStyle=0;align=center;verticalAlign=top;childLayout=stackLayout;horizontal=1;startSize=55;horizontalStack=0;resizeParent=1;resizeParentMax=0;resizeLast=0;collapsible=0;marginBottom=0;html=1;whiteSpace=wrap;" parent="1" vertex="1">
          <mxGeometry x="2790" y="2130" width="140" height="228" as="geometry" />
        </mxCell>
        <mxCell id="cxPYY08UiBncWLZFcEKH-116" value="atrybuty" style="text;html=1;strokeColor=none;fillColor=none;align=center;verticalAlign=middle;spacingLeft=4;spacingRight=4;overflow=hidden;rotatable=0;points=[[0,0.5],[1,0.5]];portConstraint=eastwest;whiteSpace=wrap;" parent="cxPYY08UiBncWLZFcEKH-115" vertex="1">
          <mxGeometry y="55" width="140" height="20" as="geometry" />
        </mxCell>
        <mxCell id="cxPYY08UiBncWLZFcEKH-117" value="string nazwa;&lt;div&gt;string hasło;&lt;/div&gt;&lt;div&gt;string dataUrodzenia;&lt;/div&gt;&lt;div&gt;string adresEmail;&lt;/div&gt;&lt;div&gt;int numerTelefonu;&lt;/div&gt;" style="text;html=1;strokeColor=none;fillColor=none;align=left;verticalAlign=middle;spacingLeft=4;spacingRight=4;overflow=hidden;rotatable=0;points=[[0,0.5],[1,0.5]];portConstraint=eastwest;whiteSpace=wrap;" parent="cxPYY08UiBncWLZFcEKH-115" vertex="1">
          <mxGeometry y="75" width="140" height="105" as="geometry" />
        </mxCell>
        <mxCell id="cxPYY08UiBncWLZFcEKH-120" value="" style="line;strokeWidth=1;fillColor=none;align=left;verticalAlign=middle;spacingTop=-1;spacingLeft=3;spacingRight=3;rotatable=0;labelPosition=right;points=[];portConstraint=eastwest;" parent="cxPYY08UiBncWLZFcEKH-115" vertex="1">
          <mxGeometry y="180" width="140" height="8" as="geometry" />
        </mxCell>
        <mxCell id="cxPYY08UiBncWLZFcEKH-121" value="metody" style="text;html=1;strokeColor=none;fillColor=none;align=center;verticalAlign=middle;spacingLeft=4;spacingRight=4;overflow=hidden;rotatable=0;points=[[0,0.5],[1,0.5]];portConstraint=eastwest;whiteSpace=wrap;" parent="cxPYY08UiBncWLZFcEKH-115" vertex="1">
          <mxGeometry y="188" width="140" height="20" as="geometry" />
        </mxCell>
        <mxCell id="cxPYY08UiBncWLZFcEKH-122" value="gettery i settery" style="text;html=1;strokeColor=none;fillColor=none;align=left;verticalAlign=middle;spacingLeft=4;spacingRight=4;overflow=hidden;rotatable=0;points=[[0,0.5],[1,0.5]];portConstraint=eastwest;whiteSpace=wrap;" parent="cxPYY08UiBncWLZFcEKH-115" vertex="1">
          <mxGeometry y="208" width="140" height="20" as="geometry" />
        </mxCell>
        <mxCell id="cxPYY08UiBncWLZFcEKH-123" value="Model" style="swimlane;fontStyle=0;align=center;verticalAlign=top;childLayout=stackLayout;horizontal=1;startSize=55;horizontalStack=0;resizeParent=1;resizeParentMax=0;resizeLast=0;collapsible=0;marginBottom=0;html=1;whiteSpace=wrap;" parent="1" vertex="1">
          <mxGeometry x="2270" y="1874" width="150" height="370" as="geometry" />
        </mxCell>
        <mxCell id="cxPYY08UiBncWLZFcEKH-124" value="atrybuty" style="text;html=1;strokeColor=none;fillColor=none;align=center;verticalAlign=middle;spacingLeft=4;spacingRight=4;overflow=hidden;rotatable=0;points=[[0,0.5],[1,0.5]];portConstraint=eastwest;whiteSpace=wrap;" parent="cxPYY08UiBncWLZFcEKH-123" vertex="1">
          <mxGeometry y="55" width="150" height="20" as="geometry" />
        </mxCell>
        <mxCell id="cxPYY08UiBncWLZFcEKH-125" value="String marka;&lt;div&gt;String model;&lt;/div&gt;" style="text;html=1;strokeColor=none;fillColor=none;align=left;verticalAlign=middle;spacingLeft=4;spacingRight=4;overflow=hidden;rotatable=0;points=[[0,0.5],[1,0.5]];portConstraint=eastwest;whiteSpace=wrap;" parent="cxPYY08UiBncWLZFcEKH-123" vertex="1">
          <mxGeometry y="75" width="150" height="145" as="geometry" />
        </mxCell>
        <mxCell id="cxPYY08UiBncWLZFcEKH-126" value="" style="line;strokeWidth=1;fillColor=none;align=left;verticalAlign=middle;spacingTop=-1;spacingLeft=3;spacingRight=3;rotatable=0;labelPosition=right;points=[];portConstraint=eastwest;" parent="cxPYY08UiBncWLZFcEKH-123" vertex="1">
          <mxGeometry y="220" width="150" height="8" as="geometry" />
        </mxCell>
        <mxCell id="cxPYY08UiBncWLZFcEKH-127" value="metody" style="text;html=1;strokeColor=none;fillColor=none;align=center;verticalAlign=middle;spacingLeft=4;spacingRight=4;overflow=hidden;rotatable=0;points=[[0,0.5],[1,0.5]];portConstraint=eastwest;whiteSpace=wrap;" parent="cxPYY08UiBncWLZFcEKH-123" vertex="1">
          <mxGeometry y="228" width="150" height="80" as="geometry" />
        </mxCell>
        <mxCell id="cxPYY08UiBncWLZFcEKH-128" value="wyszukajModel(String marka, String model); void" style="text;html=1;strokeColor=none;fillColor=none;align=left;verticalAlign=middle;spacingLeft=4;spacingRight=4;overflow=hidden;rotatable=0;points=[[0,0.5],[1,0.5]];portConstraint=eastwest;whiteSpace=wrap;" parent="cxPYY08UiBncWLZFcEKH-123" vertex="1">
          <mxGeometry y="308" width="150" height="62" as="geometry" />
        </mxCell>
        <mxCell id="cxPYY08UiBncWLZFcEKH-156" style="rounded=0;orthogonalLoop=1;jettySize=auto;html=1;" parent="1" source="cxPYY08UiBncWLZFcEKH-129" target="cxPYY08UiBncWLZFcEKH-140" edge="1">
          <mxGeometry relative="1" as="geometry" />
        </mxCell>
        <object placeholders="1" c4Name="System zarządzania ogłoszeniami" c4Type="Component" c4Technology="e.g. Spring Service" c4Description="Umożliwia wystawianie, przeglądanie, usuwanie, zarządzanie ogłoszeniami i szukanie ich, wysyłanie powiadomień o stanie aukcji czy wystawianie opinii" label="&lt;font style=&quot;font-size: 16px&quot;&gt;&lt;b&gt;%c4Name%&lt;/b&gt;&lt;/font&gt;&lt;div&gt;[%c4Type%: %c4Technology%]&lt;/div&gt;&lt;br&gt;&lt;div&gt;&lt;font style=&quot;font-size: 11px&quot;&gt;%c4Description%&lt;/font&gt;&lt;/div&gt;" id="cxPYY08UiBncWLZFcEKH-129">
          <mxCell style="rounded=1;whiteSpace=wrap;html=1;labelBackgroundColor=none;fillColor=#0050ef;fontColor=#ffffff;align=center;arcSize=6;strokeColor=#001DBC;metaEdit=1;resizable=0;points=[[0.25,0,0],[0.5,0,0],[0.75,0,0],[1,0.25,0],[1,0.5,0],[1,0.75,0],[0.75,1,0],[0.5,1,0],[0.25,1,0],[0,0.75,0],[0,0.5,0],[0,0.25,0]];" parent="1" vertex="1">
            <mxGeometry x="2920" y="2580" width="240" height="120" as="geometry" />
          </mxCell>
        </object>
        <mxCell id="cxPYY08UiBncWLZFcEKH-151" style="rounded=0;orthogonalLoop=1;jettySize=auto;html=1;entryX=0.5;entryY=0;entryDx=0;entryDy=0;" parent="1" source="cxPYY08UiBncWLZFcEKH-134" target="cxPYY08UiBncWLZFcEKH-145" edge="1">
          <mxGeometry relative="1" as="geometry" />
        </mxCell>
        <mxCell id="cxPYY08UiBncWLZFcEKH-153" style="rounded=0;orthogonalLoop=1;jettySize=auto;html=1;entryX=0.5;entryY=0;entryDx=0;entryDy=0;" parent="1" source="cxPYY08UiBncWLZFcEKH-134" target="cxPYY08UiBncWLZFcEKH-143" edge="1">
          <mxGeometry relative="1" as="geometry" />
        </mxCell>
        <object placeholders="1" c4Name="Ogloszenie" c4Type="Klasa" c4Technology="" c4Description="string nazwa;&#xa;Samochod samochod;&#xa;Promocja promocja;&#xa;Uzytkownik uzytkownik;" label="&lt;font style=&quot;font-size: 16px&quot;&gt;&lt;b&gt;%c4Name%&lt;/b&gt;&lt;/font&gt;&lt;div&gt;[%c4Type%: %c4Technology%]&lt;/div&gt;&lt;br&gt;&lt;div&gt;&lt;font style=&quot;font-size: 11px&quot;&gt;%c4Description%&lt;/font&gt;&lt;/div&gt;" id="cxPYY08UiBncWLZFcEKH-134">
          <mxCell style="rounded=1;whiteSpace=wrap;html=1;labelBackgroundColor=none;fillColor=#a20025;fontColor=#ffffff;align=center;arcSize=6;strokeColor=#6F0000;metaEdit=1;resizable=0;points=[[0.25,0,0],[0.5,0,0],[0.75,0,0],[1,0.25,0],[1,0.5,0],[1,0.75,0],[0.75,1,0],[0.5,1,0],[0.25,1,0],[0,0.75,0],[0,0.5,0],[0,0.25,0]];direction=south;" parent="1" vertex="1">
            <mxGeometry x="2980" y="2760" width="120" height="240" as="geometry" />
          </mxCell>
        </object>
        <object placeholders="1" c4Name="Samochod" c4Type="Klasa" c4Technology="" c4Description="Marka marka&#xa;Model model;&#xa;Paliwo paliwo;&#xa;Kolor kolor;&#xa;Naped naped;&#xa;float przebieg;&#xa;boolean uszkodzony;&#xa;String VIN;&#xa;int rokProdukcji;" label="&lt;font style=&quot;font-size: 14px&quot;&gt;&lt;b&gt;%c4Name%&lt;/b&gt;&lt;/font&gt;&lt;div&gt;[%c4Type%: %c4Technology%]&lt;/div&gt;&lt;br&gt;&lt;div&gt;&lt;font style=&quot;font-size: 11px&quot;&gt;&lt;font color=&quot;#E6E6E6&quot;&gt;%c4Description%&lt;/font&gt;&lt;/div&gt;" id="cxPYY08UiBncWLZFcEKH-139">
          <mxCell style="rounded=1;whiteSpace=wrap;html=1;fontSize=11;labelBackgroundColor=none;fillColor=#a20025;fontColor=#ffffff;align=center;arcSize=10;strokeColor=#6F0000;metaEdit=1;resizable=0;points=[[0.25,0,0],[0.5,0,0],[0.75,0,0],[1,0.25,0],[1,0.5,0],[1,0.75,0],[0.75,1,0],[0.5,1,0],[0.25,1,0],[0,0.75,0],[0,0.5,0],[0,0.25,0]];direction=south;" parent="1" vertex="1">
            <mxGeometry x="2470" y="2970" width="120" height="240" as="geometry" />
          </mxCell>
        </object>
        <object placeholders="1" c4Name="Uzytkownik" c4Type="klasa" c4Technology="" c4Description="string nazwa;&#xa;string hasło;&#xa;string dataUrodzenia;&#xa;string adresEmail;&#xa;int numerTelefonu;&#xa;enumTypKonta(&#xa;Administrator,&#xa;Użytkownik);" label="&lt;font style=&quot;font-size: 16px&quot;&gt;&lt;b&gt;%c4Name%&lt;/b&gt;&lt;/font&gt;&lt;div&gt;[%c4Type%: %c4Technology%]&lt;/div&gt;&lt;br&gt;&lt;div&gt;&lt;font style=&quot;font-size: 11px&quot;&gt;&lt;font color=&quot;#E6E6E6&quot;&gt;%c4Description%&lt;/font&gt;&lt;/div&gt;" id="cxPYY08UiBncWLZFcEKH-140">
          <mxCell style="rounded=1;whiteSpace=wrap;html=1;fontSize=11;labelBackgroundColor=none;fillColor=#a20025;fontColor=#ffffff;align=center;arcSize=10;strokeColor=#6F0000;metaEdit=1;resizable=0;points=[[0.25,0,0],[0.5,0,0],[0.75,0,0],[1,0.25,0],[1,0.5,0],[1,0.75,0],[0.75,1,0],[0.5,1,0],[0.25,1,0],[0,0.75,0],[0,0.5,0],[0,0.25,0]];direction=south;" parent="1" vertex="1">
            <mxGeometry x="3320" y="2760" width="120" height="240" as="geometry" />
          </mxCell>
        </object>
        <object placeholders="1" c4Name="Promocja" c4Type="Klasa" c4Technology="" c4Description="enum TypPromocji(&#xa;wyswietlNa&#xa;GoreStrony,&#xa;WyswietlajNa&#xa;StronieGlownej,&#xa;WyswietlajPod&#xa;KazdymOgloszeniem&#xa;);&#xa;&#xa;date czasTrwania;" label="&lt;font style=&quot;font-size: 16px&quot;&gt;&lt;b&gt;%c4Name%&lt;/b&gt;&lt;/font&gt;&lt;div&gt;[%c4Type%: %c4Technology%]&lt;/div&gt;&lt;br&gt;&lt;div&gt;&lt;font style=&quot;font-size: 11px&quot;&gt;&lt;font color=&quot;#E6E6E6&quot;&gt;%c4Description%&lt;/font&gt;&lt;/div&gt;" id="cxPYY08UiBncWLZFcEKH-141">
          <mxCell style="rounded=1;whiteSpace=wrap;html=1;fontSize=11;labelBackgroundColor=none;fillColor=#a20025;fontColor=#ffffff;align=center;arcSize=10;strokeColor=#6F0000;metaEdit=1;resizable=0;points=[[0.25,0,0],[0.5,0,0],[0.75,0,0],[1,0.25,0],[1,0.5,0],[1,0.75,0],[0.75,1,0],[0.5,1,0],[0.25,1,0],[0,0.75,0],[0,0.5,0],[0,0.25,0]];direction=north;" parent="1" vertex="1">
            <mxGeometry x="2520" y="2630" width="120" height="240" as="geometry" />
          </mxCell>
        </object>
        <mxCell id="cxPYY08UiBncWLZFcEKH-143" value="usunOgloszenie" style="rounded=0;whiteSpace=wrap;html=1;fillColor=#e3c800;fontColor=#000000;strokeColor=#B09500;" parent="1" vertex="1">
          <mxGeometry x="3180" y="3050" width="120" height="60" as="geometry" />
        </mxCell>
        <mxCell id="cxPYY08UiBncWLZFcEKH-144" value="dodajOgloszenie" style="rounded=0;whiteSpace=wrap;html=1;fillColor=#e3c800;fontColor=#000000;strokeColor=#B09500;" parent="1" vertex="1">
          <mxGeometry x="2990" y="3050" width="120" height="60" as="geometry" />
        </mxCell>
        <mxCell id="cxPYY08UiBncWLZFcEKH-145" value="edytujOgloszenie" style="rounded=0;whiteSpace=wrap;html=1;fillColor=#e3c800;fontColor=#000000;strokeColor=#B09500;" parent="1" vertex="1">
          <mxGeometry x="2800" y="2970" width="120" height="60" as="geometry" />
        </mxCell>
        <mxCell id="cxPYY08UiBncWLZFcEKH-147" value="" style="ellipse;html=1;fillColor=strokeColor;" parent="1" vertex="1">
          <mxGeometry x="690" y="3160" width="4" height="4" as="geometry" />
        </mxCell>
        <mxCell id="cxPYY08UiBncWLZFcEKH-148" value="" style="endArrow=open;html=1;rounded=0;align=center;verticalAlign=top;endFill=0;labelBackgroundColor=none;endSize=6;" parent="1" source="cxPYY08UiBncWLZFcEKH-147" edge="1">
          <mxGeometry relative="1" as="geometry">
            <mxPoint x="854" y="3162" as="targetPoint" />
          </mxGeometry>
        </mxCell>
        <mxCell id="cxPYY08UiBncWLZFcEKH-152" style="edgeStyle=orthogonalEdgeStyle;rounded=0;orthogonalLoop=1;jettySize=auto;html=1;entryX=0.422;entryY=0.03;entryDx=0;entryDy=0;entryPerimeter=0;" parent="1" source="cxPYY08UiBncWLZFcEKH-134" target="cxPYY08UiBncWLZFcEKH-144" edge="1">
          <mxGeometry relative="1" as="geometry" />
        </mxCell>
        <mxCell id="cxPYY08UiBncWLZFcEKH-155" style="edgeStyle=orthogonalEdgeStyle;rounded=0;orthogonalLoop=1;jettySize=auto;html=1;entryX=0;entryY=0.5;entryDx=0;entryDy=0;entryPerimeter=0;" parent="1" source="cxPYY08UiBncWLZFcEKH-129" target="cxPYY08UiBncWLZFcEKH-134" edge="1">
          <mxGeometry relative="1" as="geometry" />
        </mxCell>
        <mxCell id="cxPYY08UiBncWLZFcEKH-157" style="rounded=0;orthogonalLoop=1;jettySize=auto;html=1;entryX=0;entryY=0.5;entryDx=0;entryDy=0;entryPerimeter=0;" parent="1" source="cxPYY08UiBncWLZFcEKH-129" target="cxPYY08UiBncWLZFcEKH-139" edge="1">
          <mxGeometry relative="1" as="geometry" />
        </mxCell>
        <mxCell id="cxPYY08UiBncWLZFcEKH-158" style="rounded=0;orthogonalLoop=1;jettySize=auto;html=1;entryX=0.997;entryY=0.54;entryDx=0;entryDy=0;entryPerimeter=0;" parent="1" source="cxPYY08UiBncWLZFcEKH-129" target="cxPYY08UiBncWLZFcEKH-141" edge="1">
          <mxGeometry relative="1" as="geometry" />
        </mxCell>
        <object placeholders="1" c4Name="Model" c4Type="Klasa" c4Technology="" c4Description="" label="&lt;font style=&quot;font-size: 16px&quot;&gt;&lt;b&gt;%c4Name%&lt;/b&gt;&lt;/font&gt;&lt;div&gt;[%c4Type%: %c4Technology%]&lt;/div&gt;&lt;br&gt;&lt;div&gt;&lt;font style=&quot;font-size: 11px&quot;&gt;&lt;font color=&quot;#E6E6E6&quot;&gt;%c4Description%&lt;/font&gt;&lt;/div&gt;" id="12YIBSwW5h50Am_81pao-1">
          <mxCell style="rounded=1;whiteSpace=wrap;html=1;fontSize=11;labelBackgroundColor=none;fillColor=#60a917;fontColor=#ffffff;align=center;arcSize=10;strokeColor=#2D7600;metaEdit=1;resizable=0;points=[[0.25,0,0],[0.5,0,0],[0.75,0,0],[1,0.25,0],[1,0.5,0],[1,0.75,0],[0.75,1,0],[0.5,1,0],[0.25,1,0],[0,0.75,0],[0,0.5,0],[0,0.25,0]];direction=north;" parent="1" vertex="1">
            <mxGeometry x="2150" y="3200" width="120" height="240" as="geometry" />
          </mxCell>
        </object>
        <object placeholders="1" c4Type="Relationship" id="12YIBSwW5h50Am_81pao-2">
          <mxCell style="endArrow=blockThin;html=1;fontSize=10;fontColor=#404040;strokeWidth=1;endFill=1;strokeColor=#828282;elbow=vertical;metaEdit=1;endSize=14;startSize=14;jumpStyle=arc;jumpSize=16;rounded=0;exitX=0.402;exitY=1.033;exitDx=0;exitDy=0;exitPerimeter=0;entryX=0.5;entryY=1;entryDx=0;entryDy=0;entryPerimeter=0;" parent="1" source="cxPYY08UiBncWLZFcEKH-139" target="12YIBSwW5h50Am_81pao-1" edge="1">
            <mxGeometry width="240" relative="1" as="geometry">
              <mxPoint x="2620" y="3020" as="sourcePoint" />
              <mxPoint x="2860" y="3020" as="targetPoint" />
            </mxGeometry>
          </mxCell>
        </object>
        <object placeholders="1" c4Type="Relationship" id="12YIBSwW5h50Am_81pao-3">
          <mxCell style="endArrow=blockThin;html=1;fontSize=10;fontColor=#404040;strokeWidth=1;endFill=1;strokeColor=#828282;elbow=vertical;metaEdit=1;endSize=14;startSize=14;jumpStyle=arc;jumpSize=16;rounded=0;exitX=0;exitY=0.25;exitDx=0;exitDy=0;exitPerimeter=0;entryX=0.5;entryY=0;entryDx=0;entryDy=0;" parent="1" source="12YIBSwW5h50Am_81pao-1" target="12YIBSwW5h50Am_81pao-4" edge="1">
            <mxGeometry width="240" relative="1" as="geometry">
              <mxPoint x="2500" y="3300" as="sourcePoint" />
              <mxPoint x="2740" y="3300" as="targetPoint" />
            </mxGeometry>
          </mxCell>
        </object>
        <mxCell id="12YIBSwW5h50Am_81pao-4" value="&lt;div&gt;enum ModeleBMW(&lt;/div&gt;&lt;div&gt;E46,&lt;/div&gt;&lt;div&gt;E90,&lt;/div&gt;&lt;div&gt;F30,&lt;/div&gt;&lt;div&gt;F10,&lt;/div&gt;&lt;div&gt;E92,&lt;/div&gt;&lt;div&gt;M850i,&lt;/div&gt;&lt;div&gt;M4 Competition);&lt;/div&gt;" style="rounded=0;whiteSpace=wrap;html=1;fillColor=#dae8fc;strokeColor=#6c8ebf;gradientColor=#7ea6e0;" parent="1" vertex="1">
          <mxGeometry x="1830" y="3490" width="130" height="120" as="geometry" />
        </mxCell>
        <object placeholders="1" c4Type="Relationship" id="12YIBSwW5h50Am_81pao-5">
          <mxCell style="endArrow=blockThin;html=1;fontSize=10;fontColor=#404040;strokeWidth=1;endFill=1;strokeColor=#828282;elbow=vertical;metaEdit=1;endSize=14;startSize=14;jumpStyle=arc;jumpSize=16;rounded=0;exitX=0.329;exitY=-0.01;exitDx=0;exitDy=0;exitPerimeter=0;entryX=0.5;entryY=0;entryDx=0;entryDy=0;" parent="1" source="cxPYY08UiBncWLZFcEKH-141" target="12YIBSwW5h50Am_81pao-6" edge="1">
            <mxGeometry width="240" relative="1" as="geometry">
              <mxPoint x="2230" y="3130" as="sourcePoint" />
              <mxPoint x="2130" y="3070" as="targetPoint" />
            </mxGeometry>
          </mxCell>
        </object>
        <mxCell id="12YIBSwW5h50Am_81pao-6" value="zrealizujPromocje" style="rounded=0;whiteSpace=wrap;html=1;fillColor=#e3c800;fontColor=#000000;strokeColor=#B09500;" parent="1" vertex="1">
          <mxGeometry x="2320" y="2890" width="120" height="60" as="geometry" />
        </mxCell>
        <object placeholders="1" c4Type="Relationship" id="12YIBSwW5h50Am_81pao-7">
          <mxCell style="endArrow=blockThin;html=1;fontSize=10;fontColor=#404040;strokeWidth=1;endFill=1;strokeColor=#828282;elbow=vertical;metaEdit=1;endSize=14;startSize=14;jumpStyle=arc;jumpSize=16;rounded=0;exitX=0.999;exitY=0.614;exitDx=0;exitDy=0;exitPerimeter=0;" parent="1" source="cxPYY08UiBncWLZFcEKH-140" edge="1">
            <mxGeometry width="240" relative="1" as="geometry">
              <mxPoint x="3371" y="3010" as="sourcePoint" />
              <mxPoint x="3470" y="3180" as="targetPoint" />
            </mxGeometry>
          </mxCell>
        </object>
        <mxCell id="12YIBSwW5h50Am_81pao-8" value="wyswietlDane" style="rounded=0;whiteSpace=wrap;html=1;fillColor=#e3c800;fontColor=#000000;strokeColor=#B09500;" parent="1" vertex="1">
          <mxGeometry x="3430" y="3180" width="120" height="60" as="geometry" />
        </mxCell>
        <object placeholders="1" c4Name="Paliwo" c4Type="" c4Technology="Klasa" c4Description="enum typPaliwa(&#xa;benzyna,&#xa;diesel,&#xa;LPG);" label="&lt;font style=&quot;font-size: 16px&quot;&gt;&lt;b&gt;%c4Name%&lt;/b&gt;&lt;/font&gt;&lt;div&gt;[%c4Type%: %c4Technology%]&lt;/div&gt;&lt;br&gt;&lt;div&gt;&lt;font style=&quot;font-size: 11px&quot;&gt;&lt;font color=&quot;#E6E6E6&quot;&gt;%c4Description%&lt;/font&gt;&lt;/div&gt;" id="12YIBSwW5h50Am_81pao-10">
          <mxCell style="rounded=1;whiteSpace=wrap;html=1;fontSize=11;labelBackgroundColor=none;fillColor=#60a917;fontColor=#ffffff;align=center;arcSize=10;strokeColor=#2D7600;metaEdit=1;resizable=0;points=[[0.25,0,0],[0.5,0,0],[0.75,0,0],[1,0.25,0],[1,0.5,0],[1,0.75,0],[0.75,1,0],[0.5,1,0],[0.25,1,0],[0,0.75,0],[0,0.5,0],[0,0.25,0]];direction=south;" parent="1" vertex="1">
            <mxGeometry x="2340" y="3300" width="120" height="240" as="geometry" />
          </mxCell>
        </object>
        <object placeholders="1" c4Type="Relationship" id="12YIBSwW5h50Am_81pao-11">
          <mxCell style="endArrow=blockThin;html=1;fontSize=10;fontColor=#404040;strokeWidth=1;endFill=1;strokeColor=#828282;elbow=vertical;metaEdit=1;endSize=14;startSize=14;jumpStyle=arc;jumpSize=16;rounded=0;exitX=1.008;exitY=0.789;exitDx=0;exitDy=0;exitPerimeter=0;entryX=0;entryY=0.5;entryDx=0;entryDy=0;entryPerimeter=0;" parent="1" source="cxPYY08UiBncWLZFcEKH-139" target="12YIBSwW5h50Am_81pao-10" edge="1">
            <mxGeometry width="240" relative="1" as="geometry">
              <mxPoint x="2430" y="3260" as="sourcePoint" />
              <mxPoint x="2670" y="3260" as="targetPoint" />
            </mxGeometry>
          </mxCell>
        </object>
        <object placeholders="1" c4Name="Kolor" c4Type="Klasa" c4Technology="" c4Description="enum jakiKolor(&#xa;czerwony,&#xa;zielony,&#xa;czarny,&#xa;srebrny,&#xa;biały,&#xa;szary);" label="&lt;font style=&quot;font-size: 16px&quot;&gt;&lt;b&gt;%c4Name%&lt;/b&gt;&lt;/font&gt;&lt;div&gt;[%c4Type%: %c4Technology%]&lt;/div&gt;&lt;br&gt;&lt;div&gt;&lt;font style=&quot;font-size: 11px&quot;&gt;&lt;font color=&quot;#E6E6E6&quot;&gt;%c4Description%&lt;/font&gt;&lt;/div&gt;" id="12YIBSwW5h50Am_81pao-12">
          <mxCell style="rounded=1;whiteSpace=wrap;html=1;fontSize=11;labelBackgroundColor=none;fillColor=#60a917;fontColor=#ffffff;align=center;arcSize=10;strokeColor=#2D7600;metaEdit=1;resizable=0;points=[[0.25,0,0],[0.5,0,0],[0.75,0,0],[1,0.25,0],[1,0.5,0],[1,0.75,0],[0.75,1,0],[0.5,1,0],[0.25,1,0],[0,0.75,0],[0,0.5,0],[0,0.25,0]];direction=south;" parent="1" vertex="1">
            <mxGeometry x="2520" y="3310" width="120" height="240" as="geometry" />
          </mxCell>
        </object>
        <object placeholders="1" c4Name="Naped" c4Type="Klasa" c4Technology="" c4Description="enum jakiNaped(&#xa;4x4(stały),&#xa;4x4(dołączany automatycznie),&#xa;4x4(dołączany ręcznie),&#xa;Na przednie koła,&#xa;Na tylnie koła);" label="&lt;font style=&quot;font-size: 16px&quot;&gt;&lt;b&gt;%c4Name%&lt;/b&gt;&lt;/font&gt;&lt;div&gt;[%c4Type%: %c4Technology%]&lt;/div&gt;&lt;br&gt;&lt;div&gt;&lt;font style=&quot;font-size: 11px&quot;&gt;&lt;font color=&quot;#E6E6E6&quot;&gt;%c4Description%&lt;/font&gt;&lt;/div&gt;" id="12YIBSwW5h50Am_81pao-13">
          <mxCell style="rounded=1;whiteSpace=wrap;html=1;fontSize=11;labelBackgroundColor=none;fillColor=#60a917;fontColor=#ffffff;align=center;arcSize=10;strokeColor=#2D7600;metaEdit=1;resizable=0;points=[[0.25,0,0],[0.5,0,0],[0.75,0,0],[1,0.25,0],[1,0.5,0],[1,0.75,0],[0.75,1,0],[0.5,1,0],[0.25,1,0],[0,0.75,0],[0,0.5,0],[0,0.25,0]];direction=south;" parent="1" vertex="1">
            <mxGeometry x="2710" y="3230" width="120" height="240" as="geometry" />
          </mxCell>
        </object>
        <object placeholders="1" c4Type="Relationship" id="12YIBSwW5h50Am_81pao-15">
          <mxCell style="endArrow=blockThin;html=1;fontSize=10;fontColor=#404040;strokeWidth=1;endFill=1;strokeColor=#828282;elbow=vertical;metaEdit=1;endSize=14;startSize=14;jumpStyle=arc;jumpSize=16;rounded=0;exitX=1.004;exitY=0.298;exitDx=0;exitDy=0;exitPerimeter=0;entryX=0;entryY=0.5;entryDx=0;entryDy=0;entryPerimeter=0;" parent="1" source="cxPYY08UiBncWLZFcEKH-139" target="12YIBSwW5h50Am_81pao-12" edge="1">
            <mxGeometry width="240" relative="1" as="geometry">
              <mxPoint x="2480" y="3270" as="sourcePoint" />
              <mxPoint x="2720" y="3270" as="targetPoint" />
            </mxGeometry>
          </mxCell>
        </object>
        <object placeholders="1" c4Type="Relationship" id="12YIBSwW5h50Am_81pao-16">
          <mxCell style="endArrow=blockThin;html=1;fontSize=10;fontColor=#404040;strokeWidth=1;endFill=1;strokeColor=#828282;elbow=vertical;metaEdit=1;endSize=14;startSize=14;jumpStyle=arc;jumpSize=16;rounded=0;exitX=0.814;exitY=-0.004;exitDx=0;exitDy=0;exitPerimeter=0;entryX=0;entryY=0.5;entryDx=0;entryDy=0;entryPerimeter=0;" parent="1" source="cxPYY08UiBncWLZFcEKH-139" target="12YIBSwW5h50Am_81pao-13" edge="1">
            <mxGeometry width="240" relative="1" as="geometry">
              <mxPoint x="2620" y="3200" as="sourcePoint" />
              <mxPoint x="2860" y="3200" as="targetPoint" />
            </mxGeometry>
          </mxCell>
        </object>
        <mxCell id="12YIBSwW5h50Am_81pao-18" value="enum ModeleAudi(&lt;div&gt;A4,&lt;/div&gt;&lt;div&gt;A5,&lt;/div&gt;&lt;div&gt;A7,&lt;/div&gt;&lt;div&gt;A6,&lt;/div&gt;&lt;div&gt;RS6,&lt;/div&gt;&lt;div&gt;S4,&lt;/div&gt;&lt;div&gt;100);&lt;/div&gt;" style="rounded=0;whiteSpace=wrap;html=1;fillColor=#dae8fc;gradientColor=#7ea6e0;strokeColor=#6c8ebf;" parent="1" vertex="1">
          <mxGeometry x="2050" y="3490" width="120" height="120" as="geometry" />
        </mxCell>
        <object placeholders="1" c4Type="Relationship" id="12YIBSwW5h50Am_81pao-19">
          <mxCell style="endArrow=blockThin;html=1;fontSize=10;fontColor=#404040;strokeWidth=1;endFill=1;strokeColor=#828282;elbow=vertical;metaEdit=1;endSize=14;startSize=14;jumpStyle=arc;jumpSize=16;rounded=0;edgeStyle=orthogonalEdgeStyle;exitX=0;exitY=0.5;exitDx=0;exitDy=0;exitPerimeter=0;entryX=0.75;entryY=0;entryDx=0;entryDy=0;" parent="1" source="12YIBSwW5h50Am_81pao-1" target="12YIBSwW5h50Am_81pao-18" edge="1">
            <mxGeometry width="240" relative="1" as="geometry">
              <mxPoint x="2200" y="3450" as="sourcePoint" />
              <mxPoint x="2440" y="3450" as="targetPoint" />
            </mxGeometry>
          </mxCell>
        </object>
        <object placeholders="1" c4Type="Relationship" id="12YIBSwW5h50Am_81pao-20">
          <mxCell style="endArrow=blockThin;html=1;fontSize=10;fontColor=#404040;strokeWidth=1;endFill=1;strokeColor=#828282;elbow=vertical;metaEdit=1;endSize=14;startSize=14;jumpStyle=arc;jumpSize=16;rounded=0;exitX=0.25;exitY=1;exitDx=0;exitDy=0;exitPerimeter=0;" parent="1" source="cxPYY08UiBncWLZFcEKH-129" edge="1">
            <mxGeometry width="240" relative="1" as="geometry">
              <mxPoint x="2910" y="2840" as="sourcePoint" />
              <mxPoint x="2880" y="2820" as="targetPoint" />
            </mxGeometry>
          </mxCell>
        </object>
        <mxCell id="12YIBSwW5h50Am_81pao-21" value="wyszukajOgłoszenie" style="rounded=0;whiteSpace=wrap;html=1;fillColor=#e3c800;strokeColor=#B09500;fontColor=#000000;" parent="1" vertex="1">
          <mxGeometry x="2820" y="2820" width="120" height="60" as="geometry" />
        </mxCell>
        <mxCell id="12YIBSwW5h50Am_81pao-22" value="&lt;font style=&quot;font-size: 30px;&quot;&gt;C4&lt;/font&gt;" style="text;html=1;align=center;verticalAlign=middle;resizable=0;points=[];autosize=1;strokeColor=none;fillColor=none;" parent="1" vertex="1">
          <mxGeometry x="1970" y="2518" width="60" height="50" as="geometry" />
        </mxCell>
        <mxCell id="12YIBSwW5h50Am_81pao-23" value="&lt;font style=&quot;font-size: 30px;&quot;&gt;Schemat Bazy Danych&lt;/font&gt;" style="text;html=1;align=center;verticalAlign=middle;resizable=0;points=[];autosize=1;strokeColor=none;fillColor=none;" parent="1" vertex="1">
          <mxGeometry x="1835" y="4068" width="330" height="50" as="geometry" />
        </mxCell>
        <mxCell id="12YIBSwW5h50Am_81pao-28" value="Ogłoszenie" style="swimlane;fontStyle=0;childLayout=stackLayout;horizontal=1;startSize=26;fillColor=none;horizontalStack=0;resizeParent=1;resizeParentMax=0;resizeLast=0;collapsible=1;marginBottom=0;whiteSpace=wrap;html=1;" parent="1" vertex="1">
          <mxGeometry x="2510" y="4140" width="140" height="100" as="geometry" />
        </mxCell>
        <mxCell id="12YIBSwW5h50Am_81pao-30" value="idOgloszenia&lt;div&gt;uzytkownik&lt;br&gt;&lt;div&gt;&lt;span style=&quot;background-color: transparent; color: light-dark(rgb(0, 0, 0), rgb(255, 255, 255));&quot;&gt;samochod&lt;/span&gt;&lt;/div&gt;&lt;div&gt;&lt;span style=&quot;background-color: transparent; color: light-dark(rgb(0, 0, 0), rgb(255, 255, 255));&quot;&gt;promocja&lt;/span&gt;&lt;/div&gt;&lt;div&gt;&lt;span style=&quot;background-color: transparent; color: light-dark(rgb(0, 0, 0), rgb(255, 255, 255));&quot;&gt;&lt;br&gt;&lt;/span&gt;&lt;/div&gt;&lt;div&gt;&lt;br&gt;&lt;/div&gt;&lt;/div&gt;" style="text;strokeColor=none;fillColor=none;align=left;verticalAlign=top;spacingLeft=4;spacingRight=4;overflow=hidden;rotatable=0;points=[[0,0.5],[1,0.5]];portConstraint=eastwest;whiteSpace=wrap;html=1;" parent="12YIBSwW5h50Am_81pao-28" vertex="1">
          <mxGeometry y="26" width="140" height="74" as="geometry" />
        </mxCell>
        <mxCell id="12YIBSwW5h50Am_81pao-32" value="Samochod" style="swimlane;fontStyle=0;childLayout=stackLayout;horizontal=1;startSize=26;fillColor=none;horizontalStack=0;resizeParent=1;resizeParentMax=0;resizeLast=0;collapsible=1;marginBottom=0;whiteSpace=wrap;html=1;" parent="1" vertex="1">
          <mxGeometry x="2510" y="4320" width="140" height="200" as="geometry" />
        </mxCell>
        <mxCell id="12YIBSwW5h50Am_81pao-35" value="idSamochodu&lt;div&gt;marka&lt;/div&gt;&lt;div&gt;model&lt;/div&gt;&lt;div&gt;paliwo&lt;/div&gt;&lt;div&gt;kolor&lt;/div&gt;&lt;div&gt;naped&lt;/div&gt;&lt;div&gt;przebieg&lt;/div&gt;&lt;div&gt;rokProdukcji&lt;/div&gt;&lt;div&gt;uszkodzony&lt;/div&gt;&lt;div&gt;&lt;br&gt;&lt;/div&gt;&lt;div&gt;&lt;br&gt;&lt;/div&gt;&lt;div&gt;&lt;br&gt;&lt;/div&gt;" style="text;strokeColor=none;fillColor=none;align=left;verticalAlign=top;spacingLeft=4;spacingRight=4;overflow=hidden;rotatable=0;points=[[0,0.5],[1,0.5]];portConstraint=eastwest;whiteSpace=wrap;html=1;" parent="12YIBSwW5h50Am_81pao-32" vertex="1">
          <mxGeometry y="26" width="140" height="174" as="geometry" />
        </mxCell>
        <mxCell id="12YIBSwW5h50Am_81pao-36" value="Kolor" style="swimlane;fontStyle=0;childLayout=stackLayout;horizontal=1;startSize=26;fillColor=none;horizontalStack=0;resizeParent=1;resizeParentMax=0;resizeLast=0;collapsible=1;marginBottom=0;whiteSpace=wrap;html=1;" parent="1" vertex="1">
          <mxGeometry x="2680" y="4596" width="140" height="80" as="geometry" />
        </mxCell>
        <mxCell id="12YIBSwW5h50Am_81pao-37" value="idKoloru&lt;div&gt;hex&lt;/div&gt;&lt;div&gt;nazwa&lt;/div&gt;&lt;div&gt;&lt;br&gt;&lt;/div&gt;&lt;div&gt;&lt;br&gt;&lt;/div&gt;" style="text;strokeColor=none;fillColor=none;align=left;verticalAlign=top;spacingLeft=4;spacingRight=4;overflow=hidden;rotatable=0;points=[[0,0.5],[1,0.5]];portConstraint=eastwest;whiteSpace=wrap;html=1;" parent="12YIBSwW5h50Am_81pao-36" vertex="1">
          <mxGeometry y="26" width="140" height="54" as="geometry" />
        </mxCell>
        <mxCell id="12YIBSwW5h50Am_81pao-40" value="Model" style="swimlane;fontStyle=0;childLayout=stackLayout;horizontal=1;startSize=26;fillColor=none;horizontalStack=0;resizeParent=1;resizeParentMax=0;resizeLast=0;collapsible=1;marginBottom=0;whiteSpace=wrap;html=1;" parent="1" vertex="1">
          <mxGeometry x="2190" y="4606" width="140" height="70" as="geometry" />
        </mxCell>
        <mxCell id="12YIBSwW5h50Am_81pao-41" value="idModelu&lt;div&gt;&lt;span style=&quot;background-color: transparent; color: light-dark(rgb(0, 0, 0), rgb(255, 255, 255));&quot;&gt;model&lt;/span&gt;&lt;/div&gt;" style="text;strokeColor=none;fillColor=none;align=left;verticalAlign=top;spacingLeft=4;spacingRight=4;overflow=hidden;rotatable=0;points=[[0,0.5],[1,0.5]];portConstraint=eastwest;whiteSpace=wrap;html=1;" parent="12YIBSwW5h50Am_81pao-40" vertex="1">
          <mxGeometry y="26" width="140" height="44" as="geometry" />
        </mxCell>
        <mxCell id="12YIBSwW5h50Am_81pao-44" value="Paliwo" style="swimlane;fontStyle=0;childLayout=stackLayout;horizontal=1;startSize=26;fillColor=none;horizontalStack=0;resizeParent=1;resizeParentMax=0;resizeLast=0;collapsible=1;marginBottom=0;whiteSpace=wrap;html=1;" parent="1" vertex="1">
          <mxGeometry x="2350" y="4596" width="140" height="80" as="geometry" />
        </mxCell>
        <mxCell id="12YIBSwW5h50Am_81pao-47" value="typPaliwa" style="text;strokeColor=none;fillColor=none;align=left;verticalAlign=top;spacingLeft=4;spacingRight=4;overflow=hidden;rotatable=0;points=[[0,0.5],[1,0.5]];portConstraint=eastwest;whiteSpace=wrap;html=1;" parent="12YIBSwW5h50Am_81pao-44" vertex="1">
          <mxGeometry y="26" width="140" height="54" as="geometry" />
        </mxCell>
        <mxCell id="12YIBSwW5h50Am_81pao-48" value="Napęd" style="swimlane;fontStyle=0;childLayout=stackLayout;horizontal=1;startSize=26;fillColor=none;horizontalStack=0;resizeParent=1;resizeParentMax=0;resizeLast=0;collapsible=1;marginBottom=0;whiteSpace=wrap;html=1;" parent="1" vertex="1">
          <mxGeometry x="2850" y="4606" width="140" height="70" as="geometry" />
        </mxCell>
        <mxCell id="12YIBSwW5h50Am_81pao-51" value="&lt;div&gt;typNapedu&lt;/div&gt;" style="text;strokeColor=none;fillColor=none;align=left;verticalAlign=top;spacingLeft=4;spacingRight=4;overflow=hidden;rotatable=0;points=[[0,0.5],[1,0.5]];portConstraint=eastwest;whiteSpace=wrap;html=1;" parent="12YIBSwW5h50Am_81pao-48" vertex="1">
          <mxGeometry y="26" width="140" height="44" as="geometry" />
        </mxCell>
        <mxCell id="12YIBSwW5h50Am_81pao-52" value="Uzytkownik" style="swimlane;fontStyle=0;childLayout=stackLayout;horizontal=1;startSize=26;fillColor=none;horizontalStack=0;resizeParent=1;resizeParentMax=0;resizeLast=0;collapsible=1;marginBottom=0;whiteSpace=wrap;html=1;" parent="1" vertex="1">
          <mxGeometry x="2850" y="4130" width="140" height="140" as="geometry" />
        </mxCell>
        <mxCell id="12YIBSwW5h50Am_81pao-53" value="&lt;div&gt;idUzytkownika&lt;/div&gt;nazwa&lt;div&gt;haslo&lt;/div&gt;&lt;div&gt;dataUrodzenia&lt;/div&gt;&lt;div&gt;email&lt;/div&gt;&lt;div&gt;numertelefonu&lt;/div&gt;&lt;div&gt;typKonta&lt;/div&gt;" style="text;strokeColor=none;fillColor=none;align=left;verticalAlign=top;spacingLeft=4;spacingRight=4;overflow=hidden;rotatable=0;points=[[0,0.5],[1,0.5]];portConstraint=eastwest;whiteSpace=wrap;html=1;" parent="12YIBSwW5h50Am_81pao-52" vertex="1">
          <mxGeometry y="26" width="140" height="114" as="geometry" />
        </mxCell>
        <mxCell id="12YIBSwW5h50Am_81pao-58" value="Marka" style="swimlane;fontStyle=0;childLayout=stackLayout;horizontal=1;startSize=26;fillColor=none;horizontalStack=0;resizeParent=1;resizeParentMax=0;resizeLast=0;collapsible=1;marginBottom=0;whiteSpace=wrap;html=1;" parent="1" vertex="1">
          <mxGeometry x="2510" y="4596" width="140" height="80" as="geometry" />
        </mxCell>
        <mxCell id="12YIBSwW5h50Am_81pao-59" value="&lt;div&gt;idMarki&lt;/div&gt;&lt;div&gt;Nazwa&lt;/div&gt;" style="text;strokeColor=none;fillColor=none;align=left;verticalAlign=top;spacingLeft=4;spacingRight=4;overflow=hidden;rotatable=0;points=[[0,0.5],[1,0.5]];portConstraint=eastwest;whiteSpace=wrap;html=1;" parent="12YIBSwW5h50Am_81pao-58" vertex="1">
          <mxGeometry y="26" width="140" height="54" as="geometry" />
        </mxCell>
        <object placeholders="1" c4Name="Marka" c4Type="klasa" c4Technology="" c4Description="enum Marka(&#xa;Bmw,&#xa;Audi,&#xa;Volkswagen,&#xa;Alfa Romeo,&#xa;Nissan,&#xa;Toyota);" label="&lt;font style=&quot;font-size: 16px&quot;&gt;&lt;b&gt;%c4Name%&lt;/b&gt;&lt;/font&gt;&lt;div&gt;[%c4Type%: %c4Technology%]&lt;/div&gt;&lt;br&gt;&lt;div&gt;&lt;font style=&quot;font-size: 11px&quot;&gt;&lt;font color=&quot;#E6E6E6&quot;&gt;%c4Description%&lt;/font&gt;&lt;/div&gt;" id="12YIBSwW5h50Am_81pao-60">
          <mxCell style="rounded=1;whiteSpace=wrap;html=1;fontSize=11;labelBackgroundColor=none;fillColor=#60a917;fontColor=#ffffff;align=center;arcSize=10;strokeColor=#2D7600;metaEdit=1;resizable=0;points=[[0.25,0,0],[0.5,0,0],[0.75,0,0],[1,0.25,0],[1,0.5,0],[1,0.75,0],[0.75,1,0],[0.5,1,0],[0.25,1,0],[0,0.75,0],[0,0.5,0],[0,0.25,0]];direction=south;" parent="1" vertex="1">
            <mxGeometry x="2050" y="2922" width="120" height="240" as="geometry" />
          </mxCell>
        </object>
        <object placeholders="1" c4Type="Relationship" id="12YIBSwW5h50Am_81pao-61">
          <mxCell style="endArrow=blockThin;html=1;fontSize=10;fontColor=#404040;strokeWidth=1;endFill=1;strokeColor=#828282;elbow=vertical;metaEdit=1;endSize=14;startSize=14;jumpStyle=arc;jumpSize=16;rounded=0;exitX=0.16;exitY=1.031;exitDx=0;exitDy=0;exitPerimeter=0;entryX=0.5;entryY=0;entryDx=0;entryDy=0;entryPerimeter=0;" parent="1" source="cxPYY08UiBncWLZFcEKH-139" target="12YIBSwW5h50Am_81pao-60" edge="1">
            <mxGeometry width="240" relative="1" as="geometry">
              <mxPoint x="2360" y="3110" as="sourcePoint" />
              <mxPoint x="2600" y="3110" as="targetPoint" />
            </mxGeometry>
          </mxCell>
        </object>
        <mxCell id="12YIBSwW5h50Am_81pao-62" value="Promocja" style="swimlane;fontStyle=0;childLayout=stackLayout;horizontal=1;startSize=26;fillColor=none;horizontalStack=0;resizeParent=1;resizeParentMax=0;resizeLast=0;collapsible=1;marginBottom=0;whiteSpace=wrap;html=1;" parent="1" vertex="1">
          <mxGeometry x="2130" y="4145" width="140" height="90" as="geometry" />
        </mxCell>
        <mxCell id="12YIBSwW5h50Am_81pao-64" value="typPromocji&lt;div&gt;czasTrwania&lt;/div&gt;" style="text;strokeColor=none;fillColor=none;align=left;verticalAlign=top;spacingLeft=4;spacingRight=4;overflow=hidden;rotatable=0;points=[[0,0.5],[1,0.5]];portConstraint=eastwest;whiteSpace=wrap;html=1;" parent="12YIBSwW5h50Am_81pao-62" vertex="1">
          <mxGeometry y="26" width="140" height="64" as="geometry" />
        </mxCell>
        <mxCell id="12YIBSwW5h50Am_81pao-78" value="" style="edgeStyle=entityRelationEdgeStyle;fontSize=12;html=1;endArrow=ERoneToMany;rounded=0;entryX=-0.026;entryY=0.304;entryDx=0;entryDy=0;entryPerimeter=0;exitX=1.001;exitY=0.254;exitDx=0;exitDy=0;exitPerimeter=0;" parent="1" source="12YIBSwW5h50Am_81pao-64" target="12YIBSwW5h50Am_81pao-30" edge="1">
          <mxGeometry width="100" height="100" relative="1" as="geometry">
            <mxPoint x="2310" y="4370" as="sourcePoint" />
            <mxPoint x="2410" y="4270" as="targetPoint" />
          </mxGeometry>
        </mxCell>
        <mxCell id="12YIBSwW5h50Am_81pao-80" value="" style="edgeStyle=entityRelationEdgeStyle;fontSize=12;html=1;endArrow=ERmany;rounded=0;entryX=1.01;entryY=0.355;entryDx=0;entryDy=0;entryPerimeter=0;exitX=0;exitY=0.298;exitDx=0;exitDy=0;exitPerimeter=0;" parent="1" source="12YIBSwW5h50Am_81pao-53" target="12YIBSwW5h50Am_81pao-30" edge="1">
          <mxGeometry width="100" height="100" relative="1" as="geometry">
            <mxPoint x="2850" y="4410" as="sourcePoint" />
            <mxPoint x="2950" y="4310" as="targetPoint" />
          </mxGeometry>
        </mxCell>
        <mxCell id="12YIBSwW5h50Am_81pao-81" value="" style="fontSize=12;html=1;endArrow=ERmandOne;startArrow=ERmandOne;rounded=0;entryX=0.494;entryY=1.017;entryDx=0;entryDy=0;entryPerimeter=0;exitX=0.5;exitY=0;exitDx=0;exitDy=0;" parent="1" source="12YIBSwW5h50Am_81pao-32" target="12YIBSwW5h50Am_81pao-30" edge="1">
          <mxGeometry width="100" height="100" relative="1" as="geometry">
            <mxPoint x="2567.76" y="4298.74" as="sourcePoint" />
            <mxPoint x="2740" y="4189.998" as="targetPoint" />
          </mxGeometry>
        </mxCell>
        <mxCell id="12YIBSwW5h50Am_81pao-83" value="" style="edgeStyle=entityRelationEdgeStyle;fontSize=12;html=1;endArrow=ERoneToMany;rounded=0;exitX=0.5;exitY=0;exitDx=0;exitDy=0;entryX=0;entryY=0.5;entryDx=0;entryDy=0;" parent="1" source="12YIBSwW5h50Am_81pao-40" target="12YIBSwW5h50Am_81pao-35" edge="1">
          <mxGeometry width="100" height="100" relative="1" as="geometry">
            <mxPoint x="2260" y="4570" as="sourcePoint" />
            <mxPoint x="2360" y="4470" as="targetPoint" />
          </mxGeometry>
        </mxCell>
        <mxCell id="12YIBSwW5h50Am_81pao-84" value="" style="fontSize=12;html=1;endArrow=ERoneToMany;rounded=0;exitX=0.454;exitY=-0.025;exitDx=0;exitDy=0;exitPerimeter=0;edgeStyle=orthogonalEdgeStyle;entryX=-0.001;entryY=0.813;entryDx=0;entryDy=0;entryPerimeter=0;" parent="1" source="12YIBSwW5h50Am_81pao-44" target="12YIBSwW5h50Am_81pao-35" edge="1">
          <mxGeometry width="100" height="100" relative="1" as="geometry">
            <mxPoint x="2410" y="4580" as="sourcePoint" />
            <mxPoint x="2510" y="4520" as="targetPoint" />
            <Array as="points">
              <mxPoint x="2414" y="4540" />
              <mxPoint x="2480" y="4540" />
              <mxPoint x="2480" y="4487" />
            </Array>
          </mxGeometry>
        </mxCell>
        <mxCell id="12YIBSwW5h50Am_81pao-85" value="" style="edgeStyle=entityRelationEdgeStyle;fontSize=12;html=1;endArrow=ERoneToMany;rounded=0;exitX=0.5;exitY=0;exitDx=0;exitDy=0;entryX=1.026;entryY=0.658;entryDx=0;entryDy=0;entryPerimeter=0;" parent="1" source="12YIBSwW5h50Am_81pao-36" target="12YIBSwW5h50Am_81pao-35" edge="1">
          <mxGeometry width="100" height="100" relative="1" as="geometry">
            <mxPoint x="2740" y="4580" as="sourcePoint" />
            <mxPoint x="2840" y="4480" as="targetPoint" />
          </mxGeometry>
        </mxCell>
        <mxCell id="12YIBSwW5h50Am_81pao-86" value="" style="fontSize=12;html=1;endArrow=ERoneToMany;rounded=0;exitX=0.5;exitY=0;exitDx=0;exitDy=0;entryX=0.494;entryY=1.009;entryDx=0;entryDy=0;entryPerimeter=0;" parent="1" source="12YIBSwW5h50Am_81pao-58" target="12YIBSwW5h50Am_81pao-35" edge="1">
          <mxGeometry width="100" height="100" relative="1" as="geometry">
            <mxPoint x="2710" y="4450" as="sourcePoint" />
            <mxPoint x="2810" y="4350" as="targetPoint" />
          </mxGeometry>
        </mxCell>
        <mxCell id="12YIBSwW5h50Am_81pao-87" value="" style="edgeStyle=entityRelationEdgeStyle;fontSize=12;html=1;endArrow=ERoneToMany;rounded=0;exitX=0.5;exitY=0;exitDx=0;exitDy=0;entryX=1.003;entryY=0.367;entryDx=0;entryDy=0;entryPerimeter=0;" parent="1" source="12YIBSwW5h50Am_81pao-48" target="12YIBSwW5h50Am_81pao-35" edge="1">
          <mxGeometry width="100" height="100" relative="1" as="geometry">
            <mxPoint x="2900" y="4520" as="sourcePoint" />
            <mxPoint x="3000" y="4420" as="targetPoint" />
          </mxGeometry>
        </mxCell>
        <mxCell id="3sOaY7AhcrnJ6uBXX4-V-1" value="&lt;font style=&quot;font-size: 30px;&quot;&gt;Diagram przepływu&lt;/font&gt;" style="text;html=1;align=center;verticalAlign=middle;resizable=0;points=[];autosize=1;strokeColor=none;fillColor=none;" parent="1" vertex="1">
          <mxGeometry x="1690" y="4968" width="280" height="50" as="geometry" />
        </mxCell>
        <mxCell id="3sOaY7AhcrnJ6uBXX4-V-24" value="" style="edgeStyle=orthogonalEdgeStyle;rounded=0;orthogonalLoop=1;jettySize=auto;html=1;" parent="1" source="3sOaY7AhcrnJ6uBXX4-V-8" target="3sOaY7AhcrnJ6uBXX4-V-11" edge="1">
          <mxGeometry relative="1" as="geometry" />
        </mxCell>
        <mxCell id="3sOaY7AhcrnJ6uBXX4-V-8" value="&lt;font style=&quot;font-size: 17px;&quot;&gt;Użytkownik wchodzi na stronę główną&lt;/font&gt;" style="rounded=0;whiteSpace=wrap;html=1;" parent="1" vertex="1">
          <mxGeometry x="2205" y="5310" width="120" height="60" as="geometry" />
        </mxCell>
        <mxCell id="3sOaY7AhcrnJ6uBXX4-V-23" value="" style="edgeStyle=orthogonalEdgeStyle;rounded=0;orthogonalLoop=1;jettySize=auto;html=1;" parent="1" source="3sOaY7AhcrnJ6uBXX4-V-9" target="3sOaY7AhcrnJ6uBXX4-V-8" edge="1">
          <mxGeometry relative="1" as="geometry" />
        </mxCell>
        <mxCell id="3sOaY7AhcrnJ6uBXX4-V-9" value="&lt;font style=&quot;font-size: 17px;&quot;&gt;Start&lt;/font&gt;" style="ellipse;whiteSpace=wrap;html=1;" parent="1" vertex="1">
          <mxGeometry x="2205" y="5180" width="120" height="80" as="geometry" />
        </mxCell>
        <mxCell id="3sOaY7AhcrnJ6uBXX4-V-25" value="" style="edgeStyle=orthogonalEdgeStyle;rounded=0;orthogonalLoop=1;jettySize=auto;html=1;" parent="1" edge="1">
          <mxGeometry relative="1" as="geometry">
            <mxPoint x="2264.85" y="5480" as="sourcePoint" />
            <mxPoint x="2264.66" y="5540" as="targetPoint" />
          </mxGeometry>
        </mxCell>
        <mxCell id="3sOaY7AhcrnJ6uBXX4-V-11" value="&lt;span style=&quot;font-size: 17px;&quot;&gt;Logowanie / Rejestracja&lt;/span&gt;" style="rounded=0;whiteSpace=wrap;html=1;" parent="1" vertex="1">
          <mxGeometry x="2205" y="5420" width="120" height="60" as="geometry" />
        </mxCell>
        <mxCell id="3sOaY7AhcrnJ6uBXX4-V-32" style="edgeStyle=orthogonalEdgeStyle;rounded=0;orthogonalLoop=1;jettySize=auto;html=1;entryX=0.5;entryY=0;entryDx=0;entryDy=0;exitX=0.75;exitY=1;exitDx=0;exitDy=0;" parent="1" source="KDIaqfimIfcKnpaLYiAA-109" target="3sOaY7AhcrnJ6uBXX4-V-33" edge="1">
          <mxGeometry relative="1" as="geometry">
            <mxPoint x="2290" y="6040" as="targetPoint" />
            <mxPoint x="2290" y="5780" as="sourcePoint" />
          </mxGeometry>
        </mxCell>
        <mxCell id="3sOaY7AhcrnJ6uBXX4-V-40" style="edgeStyle=orthogonalEdgeStyle;rounded=0;orthogonalLoop=1;jettySize=auto;html=1;exitX=0.5;exitY=1;exitDx=0;exitDy=0;entryX=0.5;entryY=0;entryDx=0;entryDy=0;" parent="1" source="3sOaY7AhcrnJ6uBXX4-V-33" target="3sOaY7AhcrnJ6uBXX4-V-38" edge="1">
          <mxGeometry relative="1" as="geometry">
            <mxPoint x="2374.97" y="6135" as="sourcePoint" />
            <mxPoint x="2210" y="6160" as="targetPoint" />
            <Array as="points">
              <mxPoint x="2370" y="6160" />
              <mxPoint x="2210" y="6160" />
            </Array>
          </mxGeometry>
        </mxCell>
        <mxCell id="3sOaY7AhcrnJ6uBXX4-V-33" value="&lt;font style=&quot;font-size: 17px;&quot;&gt;Składa ofertę kupna&lt;/font&gt;" style="rounded=0;whiteSpace=wrap;html=1;" parent="1" vertex="1">
          <mxGeometry x="2310" y="6040" width="120" height="60" as="geometry" />
        </mxCell>
        <mxCell id="3sOaY7AhcrnJ6uBXX4-V-45" style="edgeStyle=orthogonalEdgeStyle;rounded=0;orthogonalLoop=1;jettySize=auto;html=1;entryX=1;entryY=0.5;entryDx=0;entryDy=0;" parent="1" source="3sOaY7AhcrnJ6uBXX4-V-38" target="KDIaqfimIfcKnpaLYiAA-109" edge="1">
          <mxGeometry relative="1" as="geometry">
            <mxPoint x="2480" y="6060" as="targetPoint" />
            <Array as="points">
              <mxPoint x="2450" y="6305" />
              <mxPoint x="2450" y="5740" />
            </Array>
          </mxGeometry>
        </mxCell>
        <mxCell id="KDIaqfimIfcKnpaLYiAA-115" style="edgeStyle=orthogonalEdgeStyle;rounded=0;orthogonalLoop=1;jettySize=auto;html=1;entryX=0.5;entryY=0;entryDx=0;entryDy=0;" parent="1" source="3sOaY7AhcrnJ6uBXX4-V-38" edge="1">
          <mxGeometry relative="1" as="geometry">
            <mxPoint x="2210" y="6480" as="targetPoint" />
          </mxGeometry>
        </mxCell>
        <mxCell id="3sOaY7AhcrnJ6uBXX4-V-38" value="&lt;span style=&quot;font-size: 15px;&quot;&gt;Czy przyjęto ofertę&lt;/span&gt;" style="rhombus;whiteSpace=wrap;html=1;" parent="1" vertex="1">
          <mxGeometry x="2135" y="6240" width="150" height="130" as="geometry" />
        </mxCell>
        <mxCell id="3sOaY7AhcrnJ6uBXX4-V-54" style="edgeStyle=orthogonalEdgeStyle;rounded=0;orthogonalLoop=1;jettySize=auto;html=1;exitX=0.25;exitY=1;exitDx=0;exitDy=0;" parent="1" source="KDIaqfimIfcKnpaLYiAA-109" target="3sOaY7AhcrnJ6uBXX4-V-51" edge="1">
          <mxGeometry relative="1" as="geometry">
            <mxPoint x="2068" y="5970" as="sourcePoint" />
          </mxGeometry>
        </mxCell>
        <mxCell id="3sOaY7AhcrnJ6uBXX4-V-63" style="edgeStyle=orthogonalEdgeStyle;rounded=0;orthogonalLoop=1;jettySize=auto;html=1;" parent="1" source="3sOaY7AhcrnJ6uBXX4-V-51" target="3sOaY7AhcrnJ6uBXX4-V-38" edge="1">
          <mxGeometry relative="1" as="geometry">
            <Array as="points">
              <mxPoint x="2128" y="6160" />
              <mxPoint x="2210" y="6160" />
            </Array>
          </mxGeometry>
        </mxCell>
        <mxCell id="3sOaY7AhcrnJ6uBXX4-V-51" value="&lt;span style=&quot;font-size: 17px;&quot;&gt;Dostaje ofertę kupna&lt;/span&gt;" style="rounded=0;whiteSpace=wrap;html=1;" parent="1" vertex="1">
          <mxGeometry x="2068" y="6040" width="120" height="60" as="geometry" />
        </mxCell>
        <mxCell id="3sOaY7AhcrnJ6uBXX4-V-69" style="edgeStyle=orthogonalEdgeStyle;rounded=0;orthogonalLoop=1;jettySize=auto;html=1;" parent="1" source="3sOaY7AhcrnJ6uBXX4-V-67" edge="1">
          <mxGeometry relative="1" as="geometry">
            <mxPoint x="2210" y="6740" as="targetPoint" />
          </mxGeometry>
        </mxCell>
        <mxCell id="3sOaY7AhcrnJ6uBXX4-V-67" value="&lt;font style=&quot;font-size: 17px;&quot;&gt;Dokonanie&lt;/font&gt;&lt;div&gt;&lt;span style=&quot;font-size: 17px;&quot;&gt;płatnośći&lt;/span&gt;&lt;/div&gt;" style="rounded=0;whiteSpace=wrap;html=1;" parent="1" vertex="1">
          <mxGeometry x="2150" y="6480" width="120" height="60" as="geometry" />
        </mxCell>
        <mxCell id="3sOaY7AhcrnJ6uBXX4-V-68" value="&lt;font style=&quot;font-size: 17px;&quot;&gt;Koniec&lt;/font&gt;" style="ellipse;whiteSpace=wrap;html=1;" parent="1" vertex="1">
          <mxGeometry x="2150" y="6740" width="120" height="80" as="geometry" />
        </mxCell>
        <mxCell id="KDIaqfimIfcKnpaLYiAA-1" value="&lt;font style=&quot;font-size: 30px;&quot;&gt;Diagram sekwencji&lt;/font&gt;" style="text;html=1;align=center;verticalAlign=middle;resizable=0;points=[];autosize=1;strokeColor=none;fillColor=none;" parent="1" vertex="1">
          <mxGeometry x="3505" y="5030" width="280" height="50" as="geometry" />
        </mxCell>
        <mxCell id="KDIaqfimIfcKnpaLYiAA-4" value="Użytkownik&lt;div&gt;&lt;br&gt;&lt;/div&gt;" style="shape=umlActor;verticalLabelPosition=bottom;verticalAlign=top;html=1;outlineConnect=0;" parent="1" vertex="1">
          <mxGeometry x="3530" y="5150" width="30" height="60" as="geometry" />
        </mxCell>
        <mxCell id="KDIaqfimIfcKnpaLYiAA-9" value="" style="endArrow=none;dashed=1;html=1;rounded=0;" parent="1" target="KDIaqfimIfcKnpaLYiAA-4" edge="1">
          <mxGeometry width="50" height="50" relative="1" as="geometry">
            <mxPoint x="3545" y="7260" as="sourcePoint" />
            <mxPoint x="3850" y="5410" as="targetPoint" />
            <Array as="points">
              <mxPoint x="3545" y="5270" />
            </Array>
          </mxGeometry>
        </mxCell>
        <mxCell id="KDIaqfimIfcKnpaLYiAA-10" value="" style="rounded=0;whiteSpace=wrap;html=1;dashed=1;fillColor=none;" parent="1" vertex="1">
          <mxGeometry x="930" y="350" width="1515" height="390" as="geometry" />
        </mxCell>
        <mxCell id="KDIaqfimIfcKnpaLYiAA-11" value="Komponent zarządzania&lt;div&gt;użytkownikiem&lt;/div&gt;" style="rounded=0;whiteSpace=wrap;html=1;" parent="1" vertex="1">
          <mxGeometry x="3840" y="5130" width="120" height="60" as="geometry" />
        </mxCell>
        <mxCell id="KDIaqfimIfcKnpaLYiAA-12" value="System&lt;div&gt;zarządzania&lt;/div&gt;&lt;div&gt;ogłoszeniami&lt;/div&gt;" style="rounded=0;whiteSpace=wrap;html=1;" parent="1" vertex="1">
          <mxGeometry x="4040" y="5130" width="120" height="60" as="geometry" />
        </mxCell>
        <object placeholders="1" c4Type="Relationship" id="KDIaqfimIfcKnpaLYiAA-13">
          <mxCell style="endArrow=blockThin;html=1;fontSize=10;fontColor=#404040;strokeWidth=1;endFill=1;strokeColor=#828282;elbow=vertical;metaEdit=1;endSize=14;startSize=14;jumpStyle=arc;jumpSize=16;rounded=0;edgeStyle=orthogonalEdgeStyle;" parent="1" edge="1">
            <mxGeometry width="240" relative="1" as="geometry">
              <mxPoint x="3550" y="5260" as="sourcePoint" />
              <mxPoint x="3720" y="5260" as="targetPoint" />
            </mxGeometry>
          </mxCell>
        </object>
        <mxCell id="KDIaqfimIfcKnpaLYiAA-17" value="" style="endArrow=none;dashed=1;html=1;rounded=0;entryX=0.5;entryY=1;entryDx=0;entryDy=0;" parent="1" target="KDIaqfimIfcKnpaLYiAA-11" edge="1">
          <mxGeometry width="50" height="50" relative="1" as="geometry">
            <mxPoint x="3900" y="7260" as="sourcePoint" />
            <mxPoint x="3555" y="5220" as="targetPoint" />
            <Array as="points">
              <mxPoint x="3900" y="5270" />
            </Array>
          </mxGeometry>
        </mxCell>
        <mxCell id="KDIaqfimIfcKnpaLYiAA-18" value="&lt;div&gt;logowanie()&lt;/div&gt;" style="text;html=1;align=center;verticalAlign=middle;resizable=0;points=[];autosize=1;strokeColor=none;fillColor=none;" parent="1" vertex="1">
          <mxGeometry x="3575" y="5231" width="90" height="30" as="geometry" />
        </mxCell>
        <mxCell id="KDIaqfimIfcKnpaLYiAA-19" value="Aplikacja" style="rounded=0;whiteSpace=wrap;html=1;" parent="1" vertex="1">
          <mxGeometry x="3662" y="5130" width="120" height="60" as="geometry" />
        </mxCell>
        <mxCell id="KDIaqfimIfcKnpaLYiAA-21" value="" style="endArrow=none;dashed=1;html=1;rounded=0;entryX=0.5;entryY=1;entryDx=0;entryDy=0;" parent="1" target="KDIaqfimIfcKnpaLYiAA-19" edge="1">
          <mxGeometry width="50" height="50" relative="1" as="geometry">
            <mxPoint x="3722" y="7250" as="sourcePoint" />
            <mxPoint x="3721" y="5230" as="targetPoint" />
            <Array as="points">
              <mxPoint x="3721" y="5270" />
            </Array>
          </mxGeometry>
        </mxCell>
        <object placeholders="1" c4Type="Relationship" id="KDIaqfimIfcKnpaLYiAA-22">
          <mxCell style="endArrow=blockThin;html=1;fontSize=10;fontColor=#404040;strokeWidth=1;endFill=1;strokeColor=#828282;elbow=vertical;metaEdit=1;endSize=14;startSize=14;jumpStyle=arc;jumpSize=16;rounded=0;edgeStyle=orthogonalEdgeStyle;" parent="1" edge="1">
            <mxGeometry width="240" relative="1" as="geometry">
              <mxPoint x="3722" y="5290" as="sourcePoint" />
              <mxPoint x="3900" y="5290" as="targetPoint" />
            </mxGeometry>
          </mxCell>
        </object>
        <mxCell id="KDIaqfimIfcKnpaLYiAA-23" value="weryfikacja()" style="text;html=1;align=center;verticalAlign=middle;resizable=0;points=[];autosize=1;strokeColor=none;fillColor=none;" parent="1" vertex="1">
          <mxGeometry x="3760" y="5510" width="90" height="30" as="geometry" />
        </mxCell>
        <object placeholders="1" c4Type="Relationship" id="KDIaqfimIfcKnpaLYiAA-26">
          <mxCell style="endArrow=blockThin;html=1;fontSize=10;fontColor=#404040;strokeWidth=1;endFill=1;strokeColor=#828282;elbow=vertical;metaEdit=1;endSize=14;startSize=14;jumpStyle=arc;jumpSize=16;rounded=0;edgeStyle=orthogonalEdgeStyle;" parent="1" edge="1">
            <mxGeometry width="240" relative="1" as="geometry">
              <mxPoint x="3900" y="5350" as="sourcePoint" />
              <mxPoint x="3720" y="5350" as="targetPoint" />
            </mxGeometry>
          </mxCell>
        </object>
        <mxCell id="KDIaqfimIfcKnpaLYiAA-27" value="błądLogowania()" style="text;html=1;align=center;verticalAlign=middle;resizable=0;points=[];autosize=1;strokeColor=none;fillColor=none;" parent="1" vertex="1">
          <mxGeometry x="3740" y="5318" width="110" height="30" as="geometry" />
        </mxCell>
        <mxCell id="KDIaqfimIfcKnpaLYiAA-36" value="&lt;div&gt;logowanie()&lt;/div&gt;" style="text;html=1;align=center;verticalAlign=middle;resizable=0;points=[];autosize=1;strokeColor=none;fillColor=none;" parent="1" vertex="1">
          <mxGeometry x="3575" y="5460" width="90" height="30" as="geometry" />
        </mxCell>
        <object placeholders="1" c4Type="Relationship" id="KDIaqfimIfcKnpaLYiAA-37">
          <mxCell style="endArrow=blockThin;html=1;fontSize=10;fontColor=#404040;strokeWidth=1;endFill=1;strokeColor=#828282;elbow=vertical;metaEdit=1;endSize=14;startSize=14;jumpStyle=arc;jumpSize=16;rounded=0;edgeStyle=orthogonalEdgeStyle;" parent="1" edge="1">
            <mxGeometry width="240" relative="1" as="geometry">
              <mxPoint x="3550" y="5490" as="sourcePoint" />
              <mxPoint x="3720" y="5490" as="targetPoint" />
            </mxGeometry>
          </mxCell>
        </object>
        <object placeholders="1" c4Type="Relationship" id="KDIaqfimIfcKnpaLYiAA-38">
          <mxCell style="endArrow=blockThin;html=1;fontSize=10;fontColor=#404040;strokeWidth=1;endFill=1;strokeColor=#828282;elbow=vertical;metaEdit=1;endSize=14;startSize=14;jumpStyle=arc;jumpSize=16;rounded=0;edgeStyle=orthogonalEdgeStyle;" parent="1" edge="1">
            <mxGeometry width="240" relative="1" as="geometry">
              <mxPoint x="3722" y="5535" as="sourcePoint" />
              <mxPoint x="3900" y="5535" as="targetPoint" />
            </mxGeometry>
          </mxCell>
        </object>
        <mxCell id="KDIaqfimIfcKnpaLYiAA-39" value="weryfikacja()" style="text;html=1;align=center;verticalAlign=middle;resizable=0;points=[];autosize=1;strokeColor=none;fillColor=none;" parent="1" vertex="1">
          <mxGeometry x="3760" y="5260" width="90" height="30" as="geometry" />
        </mxCell>
        <object placeholders="1" c4Type="Relationship" id="KDIaqfimIfcKnpaLYiAA-40">
          <mxCell style="endArrow=blockThin;html=1;fontSize=10;fontColor=#404040;strokeWidth=1;endFill=1;strokeColor=#828282;elbow=vertical;metaEdit=1;endSize=14;startSize=14;jumpStyle=arc;jumpSize=16;rounded=0;edgeStyle=orthogonalEdgeStyle;" parent="1" edge="1">
            <mxGeometry width="240" relative="1" as="geometry">
              <mxPoint x="3900" y="5590" as="sourcePoint" />
              <mxPoint x="4100" y="5590" as="targetPoint" />
            </mxGeometry>
          </mxCell>
        </object>
        <mxCell id="KDIaqfimIfcKnpaLYiAA-41" value="weryfikacja()" style="text;html=1;align=center;verticalAlign=middle;resizable=0;points=[];autosize=1;strokeColor=none;fillColor=none;" parent="1" vertex="1">
          <mxGeometry x="3760" y="5510" width="90" height="30" as="geometry" />
        </mxCell>
        <mxCell id="KDIaqfimIfcKnpaLYiAA-42" value="logowaniePotwierdzone()" style="text;html=1;align=center;verticalAlign=middle;resizable=0;points=[];autosize=1;strokeColor=none;fillColor=none;" parent="1" vertex="1">
          <mxGeometry x="3900" y="5555" width="160" height="30" as="geometry" />
        </mxCell>
        <mxCell id="KDIaqfimIfcKnpaLYiAA-43" value="" style="endArrow=none;dashed=1;html=1;rounded=0;entryX=0.5;entryY=1;entryDx=0;entryDy=0;" parent="1" target="KDIaqfimIfcKnpaLYiAA-12" edge="1">
          <mxGeometry width="50" height="50" relative="1" as="geometry">
            <mxPoint x="4100" y="7230" as="sourcePoint" />
            <mxPoint x="4139.5" y="5240" as="targetPoint" />
            <Array as="points">
              <mxPoint x="4100" y="5550" />
              <mxPoint x="4100" y="5320" />
            </Array>
          </mxGeometry>
        </mxCell>
        <object placeholders="1" c4Type="Relationship" id="KDIaqfimIfcKnpaLYiAA-44">
          <mxCell style="endArrow=blockThin;html=1;fontSize=10;fontColor=#404040;strokeWidth=1;endFill=1;strokeColor=#828282;elbow=vertical;metaEdit=1;endSize=14;startSize=14;jumpStyle=arc;jumpSize=16;rounded=0;edgeStyle=orthogonalEdgeStyle;" parent="1" edge="1">
            <mxGeometry width="240" relative="1" as="geometry">
              <mxPoint x="4100" y="5640" as="sourcePoint" />
              <mxPoint x="4100" y="5720" as="targetPoint" />
              <Array as="points">
                <mxPoint x="4250" y="5641" />
                <mxPoint x="4250" y="5720" />
              </Array>
            </mxGeometry>
          </mxCell>
        </object>
        <mxCell id="KDIaqfimIfcKnpaLYiAA-45" value="stworzOgloszenie()" style="text;html=1;align=center;verticalAlign=middle;resizable=0;points=[];autosize=1;strokeColor=none;fillColor=none;" parent="1" vertex="1">
          <mxGeometry x="4110" y="5670" width="130" height="30" as="geometry" />
        </mxCell>
        <mxCell id="KDIaqfimIfcKnpaLYiAA-46" value="&lt;div&gt;Sprzedający/kupujący&lt;/div&gt;" style="shape=umlActor;verticalLabelPosition=bottom;verticalAlign=top;html=1;outlineConnect=0;" parent="1" vertex="1">
          <mxGeometry x="4660" y="5120" width="30" height="60" as="geometry" />
        </mxCell>
        <mxCell id="KDIaqfimIfcKnpaLYiAA-48" value="Kontroler płatności" style="rounded=0;whiteSpace=wrap;html=1;" parent="1" vertex="1">
          <mxGeometry x="4870" y="5140" width="120" height="60" as="geometry" />
        </mxCell>
        <mxCell id="KDIaqfimIfcKnpaLYiAA-49" value="" style="endArrow=none;dashed=1;html=1;rounded=0;entryX=0.5;entryY=1;entryDx=0;entryDy=0;" parent="1" edge="1">
          <mxGeometry width="50" height="50" relative="1" as="geometry">
            <mxPoint x="4670" y="7220" as="sourcePoint" />
            <mxPoint x="4674.41" y="5200" as="targetPoint" />
            <Array as="points">
              <mxPoint x="4674.41" y="5560" />
              <mxPoint x="4674.41" y="5330" />
            </Array>
          </mxGeometry>
        </mxCell>
        <object placeholders="1" c4Type="Relationship" id="KDIaqfimIfcKnpaLYiAA-50">
          <mxCell style="endArrow=blockThin;html=1;fontSize=10;fontColor=#404040;strokeWidth=1;endFill=1;strokeColor=#828282;elbow=vertical;metaEdit=1;endSize=14;startSize=14;jumpStyle=arc;jumpSize=16;rounded=0;edgeStyle=orthogonalEdgeStyle;" parent="1" edge="1">
            <mxGeometry width="240" relative="1" as="geometry">
              <mxPoint x="4435" y="5910" as="sourcePoint" />
              <mxPoint x="4105" y="5910" as="targetPoint" />
              <Array as="points">
                <mxPoint x="4125" y="5910" />
                <mxPoint x="4125" y="5910" />
              </Array>
            </mxGeometry>
          </mxCell>
        </object>
        <mxCell id="KDIaqfimIfcKnpaLYiAA-52" value="skladaOferte()" style="text;html=1;align=center;verticalAlign=middle;resizable=0;points=[];autosize=1;strokeColor=none;fillColor=none;" parent="1" vertex="1">
          <mxGeometry x="4215" y="5990" width="100" height="30" as="geometry" />
        </mxCell>
        <object placeholders="1" c4Type="Relationship" id="KDIaqfimIfcKnpaLYiAA-53">
          <mxCell style="endArrow=blockThin;html=1;fontSize=10;fontColor=#404040;strokeWidth=1;endFill=1;strokeColor=#828282;elbow=vertical;metaEdit=1;endSize=14;startSize=14;jumpStyle=arc;jumpSize=16;rounded=0;edgeStyle=orthogonalEdgeStyle;" parent="1" edge="1">
            <mxGeometry width="240" relative="1" as="geometry">
              <mxPoint x="4095" y="5970" as="sourcePoint" />
              <mxPoint x="4425" y="5970" as="targetPoint" />
            </mxGeometry>
          </mxCell>
        </object>
        <mxCell id="KDIaqfimIfcKnpaLYiAA-55" value="odrzucaOferte()" style="text;html=1;align=center;verticalAlign=middle;resizable=0;points=[];autosize=1;strokeColor=none;fillColor=none;" parent="1" vertex="1">
          <mxGeometry x="4210" y="5930" width="110" height="30" as="geometry" />
        </mxCell>
        <object placeholders="1" c4Type="Relationship" id="KDIaqfimIfcKnpaLYiAA-56">
          <mxCell style="endArrow=blockThin;html=1;fontSize=10;fontColor=#404040;strokeWidth=1;endFill=1;strokeColor=#828282;elbow=vertical;metaEdit=1;endSize=14;startSize=14;jumpStyle=arc;jumpSize=16;rounded=0;edgeStyle=orthogonalEdgeStyle;" parent="1" edge="1">
            <mxGeometry width="240" relative="1" as="geometry">
              <mxPoint x="4430" y="6030" as="sourcePoint" />
              <mxPoint x="4100" y="6030" as="targetPoint" />
              <Array as="points">
                <mxPoint x="4120" y="6030" />
                <mxPoint x="4120" y="6030" />
              </Array>
            </mxGeometry>
          </mxCell>
        </object>
        <object placeholders="1" c4Type="Relationship" id="KDIaqfimIfcKnpaLYiAA-57">
          <mxCell style="endArrow=blockThin;html=1;fontSize=10;fontColor=#404040;strokeWidth=1;endFill=1;strokeColor=#828282;elbow=vertical;metaEdit=1;endSize=14;startSize=14;jumpStyle=arc;jumpSize=16;rounded=0;edgeStyle=orthogonalEdgeStyle;" parent="1" edge="1">
            <mxGeometry width="240" relative="1" as="geometry">
              <mxPoint x="4100" y="6098.57" as="sourcePoint" />
              <mxPoint x="4430" y="6098.57" as="targetPoint" />
            </mxGeometry>
          </mxCell>
        </object>
        <mxCell id="KDIaqfimIfcKnpaLYiAA-58" value="przyjmujeOferte&lt;div&gt;&lt;br&gt;&lt;/div&gt;" style="text;html=1;align=center;verticalAlign=middle;resizable=0;points=[];autosize=1;strokeColor=none;fillColor=none;" parent="1" vertex="1">
          <mxGeometry x="4210" y="6060" width="110" height="40" as="geometry" />
        </mxCell>
        <object placeholders="1" c4Type="Relationship" id="KDIaqfimIfcKnpaLYiAA-60">
          <mxCell style="endArrow=blockThin;html=1;fontSize=10;fontColor=#404040;strokeWidth=1;endFill=1;strokeColor=#828282;elbow=vertical;metaEdit=1;endSize=14;startSize=14;jumpStyle=arc;jumpSize=16;rounded=0;edgeStyle=orthogonalEdgeStyle;" parent="1" edge="1">
            <mxGeometry width="240" relative="1" as="geometry">
              <mxPoint x="4680" y="6140" as="sourcePoint" />
              <mxPoint x="4930" y="6140" as="targetPoint" />
            </mxGeometry>
          </mxCell>
        </object>
        <mxCell id="KDIaqfimIfcKnpaLYiAA-62" value="dokonujePlatnosci()" style="text;html=1;align=center;verticalAlign=middle;resizable=0;points=[];autosize=1;strokeColor=none;fillColor=none;" parent="1" vertex="1">
          <mxGeometry x="4740" y="6105" width="130" height="30" as="geometry" />
        </mxCell>
        <mxCell id="KDIaqfimIfcKnpaLYiAA-70" value="infoPlatnosc()" style="text;html=1;align=center;verticalAlign=middle;resizable=0;points=[];autosize=1;strokeColor=none;fillColor=none;" parent="1" vertex="1">
          <mxGeometry x="4970" y="6190" width="100" height="30" as="geometry" />
        </mxCell>
        <object placeholders="1" c4Type="Relationship" id="KDIaqfimIfcKnpaLYiAA-71">
          <mxCell style="endArrow=blockThin;html=1;fontSize=10;fontColor=#404040;strokeWidth=1;endFill=1;strokeColor=#828282;elbow=vertical;metaEdit=1;endSize=14;startSize=14;jumpStyle=arc;jumpSize=16;rounded=0;edgeStyle=orthogonalEdgeStyle;" parent="1" edge="1">
            <mxGeometry width="240" relative="1" as="geometry">
              <mxPoint x="4430" y="6420" as="sourcePoint" />
              <mxPoint x="4100" y="6420" as="targetPoint" />
              <Array as="points">
                <mxPoint x="4410" y="6420" />
              </Array>
            </mxGeometry>
          </mxCell>
        </object>
        <mxCell id="KDIaqfimIfcKnpaLYiAA-72" value="stworzOgloszenie()" style="text;html=1;align=center;verticalAlign=middle;resizable=0;points=[];autosize=1;strokeColor=none;fillColor=none;" parent="1" vertex="1">
          <mxGeometry x="4200" y="6390" width="130" height="30" as="geometry" />
        </mxCell>
        <object placeholders="1" c4Type="Relationship" id="KDIaqfimIfcKnpaLYiAA-73">
          <mxCell style="endArrow=blockThin;html=1;fontSize=10;fontColor=#404040;strokeWidth=1;endFill=1;strokeColor=#828282;elbow=vertical;metaEdit=1;endSize=14;startSize=14;jumpStyle=arc;jumpSize=16;rounded=0;edgeStyle=orthogonalEdgeStyle;" parent="1" edge="1">
            <mxGeometry width="240" relative="1" as="geometry">
              <mxPoint x="4100" y="6560" as="sourcePoint" />
              <mxPoint x="4430" y="6560" as="targetPoint" />
            </mxGeometry>
          </mxCell>
        </object>
        <mxCell id="KDIaqfimIfcKnpaLYiAA-74" value="skladaOferte()" style="text;html=1;align=center;verticalAlign=middle;resizable=0;points=[];autosize=1;strokeColor=none;fillColor=none;" parent="1" vertex="1">
          <mxGeometry x="4200" y="5870" width="100" height="30" as="geometry" />
        </mxCell>
        <mxCell id="KDIaqfimIfcKnpaLYiAA-77" value="skladaOferte()" style="text;html=1;align=center;verticalAlign=middle;resizable=0;points=[];autosize=1;strokeColor=none;fillColor=none;" parent="1" vertex="1">
          <mxGeometry x="4210" y="6520" width="100" height="30" as="geometry" />
        </mxCell>
        <object placeholders="1" c4Type="Relationship" id="KDIaqfimIfcKnpaLYiAA-78">
          <mxCell style="endArrow=blockThin;html=1;fontSize=10;fontColor=#404040;strokeWidth=1;endFill=1;strokeColor=#828282;elbow=vertical;metaEdit=1;endSize=14;startSize=14;jumpStyle=arc;jumpSize=16;rounded=0;edgeStyle=orthogonalEdgeStyle;" parent="1" edge="1">
            <mxGeometry width="240" relative="1" as="geometry">
              <mxPoint x="4430" y="6620" as="sourcePoint" />
              <mxPoint x="4100" y="6620" as="targetPoint" />
              <Array as="points">
                <mxPoint x="4410" y="6620" />
              </Array>
            </mxGeometry>
          </mxCell>
        </object>
        <mxCell id="KDIaqfimIfcKnpaLYiAA-79" value="odrzucaOferte()" style="text;html=1;align=center;verticalAlign=middle;resizable=0;points=[];autosize=1;strokeColor=none;fillColor=none;" parent="1" vertex="1">
          <mxGeometry x="4215" y="6590" width="110" height="30" as="geometry" />
        </mxCell>
        <object placeholders="1" c4Type="Relationship" id="KDIaqfimIfcKnpaLYiAA-80">
          <mxCell style="endArrow=blockThin;html=1;fontSize=10;fontColor=#404040;strokeWidth=1;endFill=1;strokeColor=#828282;elbow=vertical;metaEdit=1;endSize=14;startSize=14;jumpStyle=arc;jumpSize=16;rounded=0;edgeStyle=orthogonalEdgeStyle;" parent="1" edge="1">
            <mxGeometry width="240" relative="1" as="geometry">
              <mxPoint x="4100" y="6700" as="sourcePoint" />
              <mxPoint x="4430" y="6700" as="targetPoint" />
            </mxGeometry>
          </mxCell>
        </object>
        <mxCell id="KDIaqfimIfcKnpaLYiAA-81" value="skladaOferte()" style="text;html=1;align=center;verticalAlign=middle;resizable=0;points=[];autosize=1;strokeColor=none;fillColor=none;" parent="1" vertex="1">
          <mxGeometry x="4220" y="6670" width="100" height="30" as="geometry" />
        </mxCell>
        <mxCell id="KDIaqfimIfcKnpaLYiAA-82" value="przyjmujeOferte&lt;div&gt;&lt;br&gt;&lt;/div&gt;" style="text;html=1;align=center;verticalAlign=middle;resizable=0;points=[];autosize=1;strokeColor=none;fillColor=none;" parent="1" vertex="1">
          <mxGeometry x="4205" y="6780" width="110" height="40" as="geometry" />
        </mxCell>
        <object placeholders="1" c4Type="Relationship" id="KDIaqfimIfcKnpaLYiAA-83">
          <mxCell style="endArrow=blockThin;html=1;fontSize=10;fontColor=#404040;strokeWidth=1;endFill=1;strokeColor=#828282;elbow=vertical;metaEdit=1;endSize=14;startSize=14;jumpStyle=arc;jumpSize=16;rounded=0;edgeStyle=orthogonalEdgeStyle;" parent="1" edge="1">
            <mxGeometry width="240" relative="1" as="geometry">
              <mxPoint x="4435" y="6810" as="sourcePoint" />
              <mxPoint x="4105" y="6810" as="targetPoint" />
              <Array as="points">
                <mxPoint x="4415" y="6810" />
              </Array>
            </mxGeometry>
          </mxCell>
        </object>
        <object placeholders="1" c4Type="Relationship" id="KDIaqfimIfcKnpaLYiAA-84">
          <mxCell style="endArrow=blockThin;html=1;fontSize=10;fontColor=#404040;strokeWidth=1;endFill=1;strokeColor=#828282;elbow=vertical;metaEdit=1;endSize=14;startSize=14;jumpStyle=arc;jumpSize=16;rounded=0;edgeStyle=orthogonalEdgeStyle;" parent="1" edge="1">
            <mxGeometry width="240" relative="1" as="geometry">
              <mxPoint x="4345" y="6900" as="sourcePoint" />
              <mxPoint x="4930" y="6901" as="targetPoint" />
              <Array as="points">
                <mxPoint x="4598" y="6900" />
                <mxPoint x="4880" y="6901" />
                <mxPoint x="4880" y="6910" />
              </Array>
            </mxGeometry>
          </mxCell>
        </object>
        <mxCell id="KDIaqfimIfcKnpaLYiAA-87" value="dokonujePlatnosci()" style="text;html=1;align=center;verticalAlign=middle;resizable=0;points=[];autosize=1;strokeColor=none;fillColor=none;" parent="1" vertex="1">
          <mxGeometry x="4270" y="6860" width="130" height="30" as="geometry" />
        </mxCell>
        <mxCell id="KDIaqfimIfcKnpaLYiAA-88" value="infoPlatnosc()" style="text;html=1;align=center;verticalAlign=middle;resizable=0;points=[];autosize=1;strokeColor=none;fillColor=none;" parent="1" vertex="1">
          <mxGeometry x="4730" y="6950" width="100" height="30" as="geometry" />
        </mxCell>
        <mxCell id="KDIaqfimIfcKnpaLYiAA-89" value="infoPlatnosc()" style="text;html=1;align=center;verticalAlign=middle;resizable=0;points=[];autosize=1;strokeColor=none;fillColor=none;" parent="1" vertex="1">
          <mxGeometry x="4260" y="7080" width="100" height="30" as="geometry" />
        </mxCell>
        <object placeholders="1" c4Type="Relationship" id="KDIaqfimIfcKnpaLYiAA-90">
          <mxCell style="endArrow=blockThin;html=1;fontSize=10;fontColor=#404040;strokeWidth=1;endFill=1;strokeColor=#828282;elbow=vertical;metaEdit=1;endSize=14;startSize=14;jumpStyle=arc;jumpSize=16;rounded=0;edgeStyle=orthogonalEdgeStyle;" parent="1" edge="1">
            <mxGeometry width="240" relative="1" as="geometry">
              <mxPoint x="4935" y="7014" as="sourcePoint" />
              <mxPoint x="4675" y="7014" as="targetPoint" />
              <Array as="points">
                <mxPoint x="4915" y="7014" />
              </Array>
            </mxGeometry>
          </mxCell>
        </object>
        <object placeholders="1" c4Type="Relationship" id="KDIaqfimIfcKnpaLYiAA-91">
          <mxCell style="endArrow=blockThin;html=1;fontSize=10;fontColor=#404040;strokeWidth=1;endFill=1;strokeColor=#828282;elbow=vertical;metaEdit=1;endSize=14;startSize=14;jumpStyle=arc;jumpSize=16;rounded=0;edgeStyle=orthogonalEdgeStyle;" parent="1" edge="1">
            <mxGeometry width="240" relative="1" as="geometry">
              <mxPoint x="4935" y="7110" as="sourcePoint" />
              <mxPoint x="3815" y="7110" as="targetPoint" />
            </mxGeometry>
          </mxCell>
        </object>
        <mxCell id="KDIaqfimIfcKnpaLYiAA-101" value="tak" style="text;html=1;align=center;verticalAlign=middle;resizable=0;points=[];autosize=1;strokeColor=none;fillColor=none;" parent="1" vertex="1">
          <mxGeometry x="2275" y="5650" width="40" height="30" as="geometry" />
        </mxCell>
        <mxCell id="KDIaqfimIfcKnpaLYiAA-102" value="nie" style="text;html=1;align=center;verticalAlign=middle;resizable=0;points=[];autosize=1;strokeColor=none;fillColor=none;" parent="1" vertex="1">
          <mxGeometry x="1980" y="5500" width="40" height="30" as="geometry" />
        </mxCell>
        <mxCell id="KDIaqfimIfcKnpaLYiAA-103" value="Czy powiodło się" style="rhombus;" parent="1" vertex="1">
          <mxGeometry x="2215" y="5540" width="100" height="100" as="geometry" />
        </mxCell>
        <mxCell id="KDIaqfimIfcKnpaLYiAA-106" value="" style="edgeStyle=orthogonalEdgeStyle;rounded=0;orthogonalLoop=1;jettySize=auto;html=1;exitX=0.5;exitY=1;exitDx=0;exitDy=0;" parent="1" source="KDIaqfimIfcKnpaLYiAA-103" edge="1">
          <mxGeometry relative="1" as="geometry">
            <mxPoint x="2430" y="5660" as="sourcePoint" />
            <mxPoint x="2265" y="5710" as="targetPoint" />
          </mxGeometry>
        </mxCell>
        <mxCell id="KDIaqfimIfcKnpaLYiAA-107" value="" style="edgeStyle=orthogonalEdgeStyle;rounded=0;orthogonalLoop=1;jettySize=auto;html=1;exitX=0.5;exitY=1;exitDx=0;exitDy=0;" parent="1" edge="1">
          <mxGeometry relative="1" as="geometry">
            <mxPoint x="2214.23" y="5590" as="sourcePoint" />
            <mxPoint x="2200" y="5440" as="targetPoint" />
            <Array as="points">
              <mxPoint x="2214" y="5591" />
              <mxPoint x="2030" y="5591" />
              <mxPoint x="2030" y="5440" />
            </Array>
          </mxGeometry>
        </mxCell>
        <mxCell id="KDIaqfimIfcKnpaLYiAA-109" value="&lt;font style=&quot;font-size: 17px;&quot;&gt;Użytkownik zarządza ogłoszeniami&lt;/font&gt;" style="rounded=0;whiteSpace=wrap;html=1;" parent="1" vertex="1">
          <mxGeometry x="2205" y="5710" width="120" height="60" as="geometry" />
        </mxCell>
        <mxCell id="KDIaqfimIfcKnpaLYiAA-114" value="Nie" style="text;html=1;align=center;verticalAlign=middle;resizable=0;points=[];autosize=1;strokeColor=none;fillColor=none;" parent="1" vertex="1">
          <mxGeometry x="2300" y="6275" width="40" height="30" as="geometry" />
        </mxCell>
        <mxCell id="KDIaqfimIfcKnpaLYiAA-117" value="Tak" style="text;html=1;align=center;verticalAlign=middle;resizable=0;points=[];autosize=1;strokeColor=none;fillColor=none;" parent="1" vertex="1">
          <mxGeometry x="2210" y="6388" width="40" height="30" as="geometry" />
        </mxCell>
        <mxCell id="KDIaqfimIfcKnpaLYiAA-118" value="System&lt;div&gt;E-mail&lt;/div&gt;" style="rounded=0;whiteSpace=wrap;html=1;" parent="1" vertex="1">
          <mxGeometry x="5082" y="5140" width="120" height="60" as="geometry" />
        </mxCell>
        <mxCell id="KDIaqfimIfcKnpaLYiAA-122" value="" style="endArrow=none;dashed=1;html=1;rounded=0;entryX=0.5;entryY=1;entryDx=0;entryDy=0;" parent="1" edge="1">
          <mxGeometry width="50" height="50" relative="1" as="geometry">
            <mxPoint x="4930" y="7230" as="sourcePoint" />
            <mxPoint x="4930" y="5200" as="targetPoint" />
            <Array as="points" />
          </mxGeometry>
        </mxCell>
        <mxCell id="KDIaqfimIfcKnpaLYiAA-123" value="" style="endArrow=none;dashed=1;html=1;rounded=0;entryX=0.5;entryY=1;entryDx=0;entryDy=0;" parent="1" edge="1">
          <mxGeometry width="50" height="50" relative="1" as="geometry">
            <mxPoint x="5141.29" y="7230" as="sourcePoint" />
            <mxPoint x="5141.29" y="5200" as="targetPoint" />
            <Array as="points" />
          </mxGeometry>
        </mxCell>
        <object placeholders="1" c4Type="Relationship" id="KDIaqfimIfcKnpaLYiAA-124">
          <mxCell style="endArrow=blockThin;html=1;fontSize=10;fontColor=#404040;strokeWidth=1;endFill=1;strokeColor=#828282;elbow=vertical;metaEdit=1;endSize=14;startSize=14;jumpStyle=arc;jumpSize=16;rounded=0;edgeStyle=orthogonalEdgeStyle;" parent="1" edge="1">
            <mxGeometry width="240" relative="1" as="geometry">
              <mxPoint x="4930" y="6230" as="sourcePoint" />
              <mxPoint x="5140" y="6230" as="targetPoint" />
            </mxGeometry>
          </mxCell>
        </object>
        <object placeholders="1" c4Type="Relationship" id="KDIaqfimIfcKnpaLYiAA-125">
          <mxCell style="endArrow=blockThin;html=1;fontSize=10;fontColor=#404040;strokeWidth=1;endFill=1;strokeColor=#828282;elbow=vertical;metaEdit=1;endSize=14;startSize=14;jumpStyle=arc;jumpSize=16;rounded=0;edgeStyle=orthogonalEdgeStyle;" parent="1" edge="1">
            <mxGeometry width="240" relative="1" as="geometry">
              <mxPoint x="5140" y="6275" as="sourcePoint" />
              <mxPoint x="4680" y="6275" as="targetPoint" />
              <Array as="points">
                <mxPoint x="5120" y="6275" />
              </Array>
            </mxGeometry>
          </mxCell>
        </object>
        <object placeholders="1" c4Type="Relationship" id="KDIaqfimIfcKnpaLYiAA-126">
          <mxCell style="endArrow=blockThin;html=1;fontSize=10;fontColor=#404040;strokeWidth=1;endFill=1;strokeColor=#828282;elbow=vertical;metaEdit=1;endSize=14;startSize=14;jumpStyle=arc;jumpSize=16;rounded=0;edgeStyle=orthogonalEdgeStyle;" parent="1" edge="1">
            <mxGeometry width="240" relative="1" as="geometry">
              <mxPoint x="5140" y="6300" as="sourcePoint" />
              <mxPoint x="3800" y="6300" as="targetPoint" />
              <Array as="points">
                <mxPoint x="4210" y="6300" />
                <mxPoint x="4210" y="6300" />
              </Array>
            </mxGeometry>
          </mxCell>
        </object>
        <mxCell id="KDIaqfimIfcKnpaLYiAA-127" value="wysylaEmail()" style="text;html=1;align=center;verticalAlign=middle;resizable=0;points=[];autosize=1;strokeColor=none;fillColor=none;" parent="1" vertex="1">
          <mxGeometry x="4820" y="6238" width="100" height="30" as="geometry" />
        </mxCell>
        <mxCell id="KDIaqfimIfcKnpaLYiAA-128" value="wysylaEmail()" style="text;html=1;align=center;verticalAlign=middle;resizable=0;points=[];autosize=1;strokeColor=none;fillColor=none;" parent="1" vertex="1">
          <mxGeometry x="4260" y="6268" width="100" height="30" as="geometry" />
        </mxCell>
        <mxCell id="KDIaqfimIfcKnpaLYiAA-133" value="System komunikacji&lt;div&gt;&lt;br&gt;&lt;/div&gt;" style="rounded=0;whiteSpace=wrap;html=1;" parent="1" vertex="1">
          <mxGeometry x="4460" y="5130" width="120" height="60" as="geometry" />
        </mxCell>
        <mxCell id="KDIaqfimIfcKnpaLYiAA-134" value="" style="endArrow=none;dashed=1;html=1;rounded=0;entryX=0.5;entryY=1;entryDx=0;entryDy=0;" parent="1" edge="1">
          <mxGeometry width="50" height="50" relative="1" as="geometry">
            <mxPoint x="4517.8" y="7210" as="sourcePoint" />
            <mxPoint x="4522.21" y="5190" as="targetPoint" />
            <Array as="points">
              <mxPoint x="4522.21" y="5550" />
              <mxPoint x="4522.21" y="5320" />
            </Array>
          </mxGeometry>
        </mxCell>
        <mxCell id="SJwepf0iaP2_xkOxDQHA-1" value="" style="endArrow=none;dashed=1;html=1;rounded=0;entryX=0.5;entryY=1;entryDx=0;entryDy=0;" edge="1" parent="1" target="KDIaqfimIfcKnpaLYiAA-19">
          <mxGeometry width="50" height="50" relative="1" as="geometry">
            <mxPoint x="3722" y="7250" as="sourcePoint" />
            <mxPoint x="3722" y="5190" as="targetPoint" />
            <Array as="points">
              <mxPoint x="3710" y="5780" />
              <mxPoint x="3721" y="5270" />
            </Array>
          </mxGeometry>
        </mxCell>
      </root>
    </mxGraphModel>
  </diagram>
</mxfile>
